<svg xmlns="http://www.w3.org/2000/svg" width="30.639" height="30.373" viewBox="0 0 30.639 30.373">
  <g id="Group_4269" data-name="Group 4269" transform="translate(-227 -719)">
    <rect id="Rectangle_143" data-name="Rectangle 143" width="30" height="30" transform="translate(227 719)" fill="none"/>
    <path id="noun-document-5200769" d="M135.651,16.458h1.811V14.647a.655.655,0,0,1,.655-.655H154.46a.655.655,0,0,1,.655.655V35.762a.655.655,0,0,1-.655.655h-1.811v1.811a.655.655,0,0,1-.655.655H135.651a.655.655,0,0,1-.655-.655V17.113A.655.655,0,0,1,135.651,16.458Zm2.712,4.623a.655.655,0,0,1,0-1.31H149.28a.655.655,0,0,1,0,1.31Zm0,14.49a.655.655,0,0,1,0-1.31h6.707a.655.655,0,1,1,0,1.31Zm0-3.623a.655.655,0,0,1,0-1.31h8.705a.655.655,0,1,1,0,1.31Zm0-3.622a.655.655,0,0,1,0-1.31H149.28a.655.655,0,0,1,0,1.31Zm0-3.623a.655.655,0,0,1,0-1.31H149.28a.655.655,0,0,1,0,1.31Zm.409-8.245h13.221a.655.655,0,0,1,.655.655V35.107H153.8V15.3H138.773v1.156Zm12.565,1.31H136.306v19.8h15.032Z" transform="translate(96.944 707.563)" fill="#3883e1"/>
    <g id="Group_4109" data-name="Group 4109" transform="translate(-307.734 3)">
      <path id="bxs-check-circle" d="M10.187,2a8.187,8.187,0,1,0,8.187,8.187A8.2,8.2,0,0,0,10.187,2Z" transform="translate(547 728)" fill="#102141"/>
      <g id="bx-check-circle" transform="translate(549 730)">
        <path id="Path_4106" data-name="Path 4106" d="M10.187,2a8.187,8.187,0,1,0,8.187,8.187A8.2,8.2,0,0,0,10.187,2Zm0,14.736a6.549,6.549,0,1,1,6.549-6.549A6.557,6.557,0,0,1,10.187,16.736Z" transform="translate(-2 -2)" fill="#3883e1"/>
        <path id="Path_4107" data-name="Path 4107" d="M9.326,12.627,7.444,10.748,6.288,11.907l3.04,3.033,5.49-5.49L13.66,8.293Z" transform="translate(-2.778 -3.141)" fill="#3883e1"/>
      </g>
    </g>
  </g>
</svg>
