<svg id="Agreement_LC_Module" data-name="Agreement &amp; LC Module" xmlns="http://www.w3.org/2000/svg" width="36" height="36" viewBox="0 0 36 36">
  <rect id="Rectangle_143" data-name="Rectangle 143" width="36" height="36" fill="none"/>
  <path id="clipboard-check" d="M14.727,12.348a.55.55,0,0,0-.771-.005L9.143,17.117,7.06,15.012a.55.55,0,0,0-.771-.005L5,16.286a.55.55,0,0,0-.005.771l3.746,3.779a.55.55,0,0,0,.771.005L16,14.41A.55.55,0,0,0,16,13.639l-1.274-1.291ZM18.374,3.5H14a3.5,3.5,0,1,0-7,0H2.625A2.626,2.626,0,0,0,0,6.125v19.25A2.626,2.626,0,0,0,2.625,28h15.75A2.626,2.626,0,0,0,21,25.375V6.125A2.626,2.626,0,0,0,18.374,3.5ZM10.5,2.625a.875.875,0,1,1-.875.875A.878.878,0,0,1,10.5,2.625Zm7.875,22.312a.439.439,0,0,1-.437.438H3.062a.439.439,0,0,1-.437-.438V6.563a.439.439,0,0,1,.437-.437H5.25v1.75a.878.878,0,0,0,.875.875h8.75a.878.878,0,0,0,.875-.875V6.125h2.187a.439.439,0,0,1,.437.438Z" transform="translate(8 4)" fill="#3883e1"/>
</svg>
