<svg id="Component_71_11" data-name="Component 71 – 11" xmlns="http://www.w3.org/2000/svg" width="28" height="22.239" viewBox="0 0 28 22.239">
  <g id="eye-slash-fill">
    <g id="eye-slash-fill-2" data-name="eye-slash-fill" transform="translate(0 -1.646)" opacity="0.3">
      <path id="Path_3363" data-name="Path 3363" d="M18.882,21.934l-2.825-3.014a5.855,5.855,0,0,1-6.393-1.532,6.847,6.847,0,0,1-1.436-6.818L4.623,6.724A25.112,25.112,0,0,0,0,12.765S5.25,23.031,14,23.031a11.65,11.65,0,0,0,4.883-1.1ZM9.118,3.6A11.648,11.648,0,0,1,14,2.5c8.75,0,14,10.265,14,10.265a25.256,25.256,0,0,1-4.622,6.044L19.77,14.96a6.847,6.847,0,0,0-1.436-6.818A5.855,5.855,0,0,0,11.94,6.61L9.118,3.6Z" transform="translate(0 0)" fill="none"/>
      <path id="Path_3364" data-name="Path 3364" d="M9.188,12.146a4.115,4.115,0,0,0,1.375,3.713A5.2,5.2,0,0,0,14.688,17.1l-5.5-4.951Zm9.624,1.239-5.5-4.953A5.2,5.2,0,0,1,17.437,9.67a4.115,4.115,0,0,1,1.375,3.713Zm6.165,10.5-23.331-21L3.023,1.646l23.331,21Z" transform="translate(0)" fill="none"/>
    </g>
  </g>
  <g id="Group_771" data-name="Group 771" transform="translate(-1394 -4802.761)">
    <path id="Path_3361" data-name="Path 3361" d="M14.336,9.918A4.418,4.418,0,1,1,9.918,5.5a4.418,4.418,0,0,1,4.418,4.418Z" transform="translate(1398.082 4803.582)" fill="#3687e8"/>
    <path id="Path_3362" data-name="Path 3362" d="M0,12.125S5.25,2.5,14,2.5s14,9.625,14,9.625S22.75,21.75,14,21.75,0,12.125,0,12.125ZM14,18.25a6.125,6.125,0,1,0-6.125-6.125A6.125,6.125,0,0,0,14,18.25Z" transform="translate(1394 4801.5)" fill="#3687e8"/>
  </g>
</svg>
