<svg xmlns="http://www.w3.org/2000/svg" width="28.157" height="21.001" viewBox="0 0 28.157 21.001">
  <path id="box-open" d="M27.009,36.991,24.826,32.4A.692.692,0,0,0,24.2,32c-.027,0-10.7,1.429-10.7,1.429S2.839,32,2.812,32a.7.7,0,0,0-.621.4L.009,36.991a.738.738,0,0,0,.429,1.027l2.21.665v9.433A1.412,1.412,0,0,0,3.674,49.5l9.17,2.415a2.6,2.6,0,0,0,1.317,0L23.339,49.5a1.42,1.42,0,0,0,1.027-1.384V38.683l2.21-.665A.74.74,0,0,0,27.009,36.991ZM3.2,33.487l8.076,1.085L8.723,39.027,1.585,36.879,3.2,33.487Zm.812,5.607c5.228,1.571,4.879,1.478,5.018,1.478a.68.68,0,0,0,.594-.353l3.21-5.6V50.437L4.009,48.116Zm19,9.022-8.821,2.321V34.612l3.21,5.6a.691.691,0,0,0,.594.353c.138,0-.223.094,5.018-1.478ZM18.3,39.022,15.75,34.567l8.071-1.08,1.612,3.393Z" transform="translate(0.571 -31.5)" fill="#2884de" stroke="#2884de" stroke-width="1"/>
</svg>
