<svg xmlns="http://www.w3.org/2000/svg" width="23.115" height="25.684" viewBox="0 0 23.115 25.684">
  <g id="Group_2671" data-name="Group 2671" transform="translate(2190 20136)">
    <path id="date_range" d="M10.705,13.558H8.137v2.568h2.568Zm5.137,0H13.273v2.568h2.568Zm5.137,0H18.41v2.568h2.568Zm2.568-8.989H22.263V2H19.694V4.568H9.421V2H6.853V4.568H5.568A2.557,2.557,0,0,0,3.013,7.137L3,25.115a2.568,2.568,0,0,0,2.568,2.568H23.547a2.576,2.576,0,0,0,2.568-2.568V7.137A2.576,2.576,0,0,0,23.547,4.568Zm0,20.547H5.568V10.989H23.547Z" transform="translate(-2193 -20138)" fill="#7f7f7f"/>
    <path id="date_range-2" data-name="date_range" d="M9.568,11H7v2.568H9.568Zm5.137,0H12.137v2.568h2.568Zm5.137,0H17.273v2.568h2.568Z" transform="translate(-2191.863 -20130.305)" fill="#7f7f7f"/>
  </g>
</svg>
