<svg id="Chat" xmlns="http://www.w3.org/2000/svg" width="38" height="38" viewBox="0 0 38 38">
  <rect id="Rectangle_147" data-name="Rectangle 147" width="38" height="38" fill="none"/>
  <g id="Group_15" data-name="Group 15" transform="translate(5 4)">
    <path id="Path_4" data-name="Path 4" d="M1430.16,60.621v12.6a2.805,2.805,0,0,1-2.8,2.793h-19.6l-5.6,5.586V56.46a2.805,2.805,0,0,1,2.8-2.793h14.131a7.225,7.225,0,0,0,0,2.793h-14.131V73.217h22.394V61.906A6.977,6.977,0,0,0,1430.16,60.621Z" transform="translate(-1402.16 -50.799)" fill="#fff"/>
    <path id="Path_5" data-name="Path 5" d="M1420.83,55.3a4.3,4.3,0,1,0,4.3-4.3A4.291,4.291,0,0,0,1420.83,55.3Z" transform="translate(-1401.433 -51)" fill="#34d979"/>
  </g>
</svg>
