<svg xmlns="http://www.w3.org/2000/svg" width="30" height="30" viewBox="0 0 30 30">
  <g id="Group_4283" data-name="Group 4283" transform="translate(-226 -1951)">
    <rect id="Rectangle_143" data-name="Rectangle 143" width="30" height="30" transform="translate(226 1951)" fill="none"/>
    <path id="Path_4268" data-name="Path 4268" d="M232,87.774V86.559h12.474a2.2,2.2,0,0,0,1.372-.481l2.97-2.376.759.949-2.97,2.376a3.411,3.411,0,0,1-2.131.747Z" transform="translate(0.486 1870.926)" fill="#3883e1"/>
    <path id="Path_4269" data-name="Path 4269" d="M774,206.607a.607.607,0,1,1,1.215,0v10.934a.607.607,0,1,1-1.215,0Z" transform="translate(-528.852 1751.486)" fill="#3883e1"/>
    <path id="Path_4270" data-name="Path 4270" d="M428.3,40,424,44.252v4.5h3.364v-4.5L432.037,40Z" transform="translate(-187.028 1913.607)" fill="#3883e1" fill-rule="evenodd"/>
    <path id="Path_4271" data-name="Path 4271" d="M175.293,27.324a.607.607,0,1,1-1.215,0l0-6.072a5.279,5.279,0,0,1,1.844-4.013l2.55-2.186a4.346,4.346,0,0,1,2.828-1.046h8.336a4.345,4.345,0,0,1,4.346,4.346V26.31a3.411,3.411,0,0,1-.791,2.184l-1.219,1.463a.607.607,0,0,1-.933-.778l1.219-1.463a2.2,2.2,0,0,0,.509-1.406V18.354a3.131,3.131,0,0,0-3.131-3.131h-8.336a3.131,3.131,0,0,0-2.037.754l-2.55,2.186a4.065,4.065,0,0,0-1.42,3.09Z" transform="translate(57.06 1938.992)" fill="#3883e1"/>
    <path id="Path_4272" data-name="Path 4272" d="M239.747,728.953c1.421,0,2.462.5,2.462,1.894,0,1.135-.878,1.793-2.462,1.987h-5.63a.561.561,0,1,1,0-1.121l5.56,0c1.021-.128,1.411-.42,1.411-.87,0-.552-.464-.773-1.341-.773h-3.428a.561.561,0,0,1-.374-.143c-1.713-1.537-4.134-2.215-7.3-2.015a.561.561,0,0,1-.07-1.119c3.348-.211,6.009.5,7.953,2.157Z" transform="translate(4.343 1242.893)" fill="#3883e1"/>
    <path id="Path_4273" data-name="Path 4273" d="M241.685,783.9a.561.561,0,1,1-.3-1.081l4.97-1.38a2.214,2.214,0,0,1,2.848,1.142c.528,1.183-.22,2.2-1.908,2.963l-8.656,4.422a3.365,3.365,0,0,1-2.441.243l-7.751-2.18a.561.561,0,1,1,.3-1.08l7.751,2.18a2.243,2.243,0,0,0,1.628-.162l8.679-4.433c1.225-.557,1.577-1.034,1.371-1.5-.246-.551-.7-.721-1.54-.514Z" transform="translate(4.355 1189.609)" fill="#3883e1"/>
    <path id="Path_4274" data-name="Path 4274" d="M41.121,689.053h2.712v-7.941H41.121Zm-.187-9.063H44.02a.935.935,0,0,1,.935.935v8.315a.935.935,0,0,1-.935.935H40.935A.935.935,0,0,1,40,689.24v-8.315A.935.935,0,0,1,40.935,679.99Z" transform="translate(188 1288.57)" fill="#3883e1"/>
  </g>
</svg>
