<svg id="Credit_Queue" data-name="Credit Queue" xmlns="http://www.w3.org/2000/svg" width="30" height="30" viewBox="0 0 30 30">
  <rect id="Rectangle_143" data-name="Rectangle 143" width="30" height="30" fill="none"/>
  <path id="list-alt" d="M18.125,32H1.875A1.875,1.875,0,0,0,0,33.875v13.75A1.875,1.875,0,0,0,1.875,49.5h16.25A1.875,1.875,0,0,0,20,47.625V33.875A1.875,1.875,0,0,0,18.125,32Zm-.234,15.625H2.109a.234.234,0,0,1-.234-.234V34.109a.234.234,0,0,1,.234-.234H17.891a.234.234,0,0,1,.234.234V47.391A.234.234,0,0,1,17.891,47.625ZM16.25,44.031v.938a.469.469,0,0,1-.469.469H7.969a.469.469,0,0,1-.469-.469v-.937a.469.469,0,0,1,.469-.469h7.812A.469.469,0,0,1,16.25,44.031Zm0-3.75v.938a.469.469,0,0,1-.469.469H7.969a.469.469,0,0,1-.469-.469v-.937a.469.469,0,0,1,.469-.469h7.812A.469.469,0,0,1,16.25,40.281Zm0-3.75v.938a.469.469,0,0,1-.469.469H7.969a.469.469,0,0,1-.469-.469v-.937a.469.469,0,0,1,.469-.469h7.812A.469.469,0,0,1,16.25,36.531ZM6.406,37A1.406,1.406,0,1,1,5,35.594,1.406,1.406,0,0,1,6.406,37Zm0,3.75A1.406,1.406,0,1,1,5,39.344,1.406,1.406,0,0,1,6.406,40.75Zm0,3.75A1.406,1.406,0,1,1,5,43.094,1.406,1.406,0,0,1,6.406,44.5Z" transform="translate(5 -26)" fill="#3883e1"/>
</svg>
