<svg xmlns="http://www.w3.org/2000/svg" width="36.84" height="34.791" viewBox="0 0 36.84 34.791">
  <g id="danger" transform="translate(-1.244 -1.84)">
    <path id="Path_3366" data-name="Path 3366" d="M12.6,19.983a1.364,1.364,0,0,1-1.354-1.354V9.6a1.354,1.354,0,1,1,2.708,0v9.025A1.364,1.364,0,0,1,12.6,19.983Z" transform="translate(7.056 4.285)" fill="#fff"/>
    <path id="Path_3367" data-name="Path 3367" d="M12.805,19.612a2.713,2.713,0,0,1-.361-.036,1.147,1.147,0,0,1-.325-.108,1.367,1.367,0,0,1-.325-.162l-.271-.217a1.831,1.831,0,0,1,0-2.563l.271-.217a1.367,1.367,0,0,1,.325-.162,1.147,1.147,0,0,1,.325-.108,1.545,1.545,0,0,1,.7,0,1.089,1.089,0,0,1,.343.108,1.367,1.367,0,0,1,.325.162l.271.217a1.831,1.831,0,0,1,0,2.563l-.271.217a1.367,1.367,0,0,1-.325.162,1.089,1.089,0,0,1-.343.108A2.212,2.212,0,0,1,12.805,19.612Z" transform="translate(6.855 9.938)" fill="#fff"/>
    <path id="Path_3368" data-name="Path 3368" d="M30.036,36.631H9.285c-3.339,0-5.89-1.216-7.191-3.407C.81,31.032.981,28.207,2.608,25.279L12.983,6.617C14.7,3.535,17.058,1.84,19.661,1.84s4.965,1.7,6.677,4.777L36.714,25.3c1.627,2.928,1.815,5.736.514,7.944C35.926,35.415,33.375,36.631,30.036,36.631ZM19.661,4.408c-1.609,0-3.185,1.233-4.435,3.459L4.868,26.546C3.7,28.635,3.515,30.553,4.32,31.94S6.905,34.08,9.3,34.08H30.053c2.4,0,4.161-.753,4.982-2.14s.616-3.287-.548-5.393L24.1,7.867C22.845,5.641,21.27,4.408,19.661,4.408Z" transform="translate(0 0)" fill="#fff"/>
  </g>
</svg>
