<svg id="Dashboard" xmlns="http://www.w3.org/2000/svg" width="36" height="36" viewBox="0 0 36 36">
  <rect id="Rectangle_143" data-name="Rectangle 143" width="36" height="36" fill="none"/>
  <g id="bxs-dashboard" transform="translate(1 1)" fill="none">
    <path d="M4.556,18.556h9.333A1.556,1.556,0,0,0,15.444,17V4.556A1.556,1.556,0,0,0,13.889,3H4.556A1.556,1.556,0,0,0,3,4.556V17a1.556,1.556,0,0,0,1.556,1.556ZM3,29.444A1.556,1.556,0,0,0,4.556,31h9.333a1.556,1.556,0,0,0,1.556-1.556V23.222a1.556,1.556,0,0,0-1.556-1.556H4.556A1.556,1.556,0,0,0,3,23.222Zm15.556,0A1.556,1.556,0,0,0,20.111,31h9.333A1.556,1.556,0,0,0,31,29.444V18.556A1.556,1.556,0,0,0,29.444,17H20.111a1.556,1.556,0,0,0-1.556,1.556Zm1.556-15.556h9.333A1.556,1.556,0,0,0,31,12.333V4.556A1.556,1.556,0,0,0,29.444,3H20.111a1.556,1.556,0,0,0-1.556,1.556v7.778A1.556,1.556,0,0,0,20.111,13.889Z" stroke="none"/>
    <path d="M 28 28 L 28 20 L 21.5555591583252 20 L 21.5555591583252 28 L 28 28 M 12.44443988800049 28 L 12.44443988800049 24.66666030883789 L 6 24.66666030883789 L 6 28 L 12.44443988800049 28 M 12.44443988800049 15.55556011199951 L 12.44443988800049 6 L 6 6 L 6 15.55556011199951 L 12.44443988800049 15.55556011199951 M 28 10.88889026641846 L 28 6 L 21.5555591583252 6 L 21.5555591583252 10.88889026641846 L 28 10.88889026641846 M 29.44445037841797 31 L 20.11111068725586 31 C 19.25200080871582 31 18.5555591583252 30.30356025695801 18.5555591583252 29.44445037841797 L 18.5555591583252 18.5555591583252 C 18.5555591583252 17.69644927978516 19.25200080871582 17 20.11111068725586 17 L 29.44445037841797 17 C 30.30356025695801 17 31 17.69644927978516 31 18.5555591583252 L 31 29.44445037841797 C 31 30.30356025695801 30.30356025695801 31 29.44445037841797 31 Z M 13.88889026641846 31 L 4.555560111999512 31 C 3.696449995040894 31 3 30.30356025695801 3 29.44445037841797 L 3 23.22221946716309 C 3 22.36310958862305 3.696449995040894 21.66666030883789 4.555560111999512 21.66666030883789 L 13.88889026641846 21.66666030883789 C 14.7480001449585 21.66666030883789 15.44443988800049 22.36310958862305 15.44443988800049 23.22221946716309 L 15.44443988800049 29.44445037841797 C 15.44443988800049 30.30356025695801 14.7480001449585 31 13.88889026641846 31 Z M 13.88889026641846 18.5555591583252 L 4.555560111999512 18.5555591583252 C 3.696449995040894 18.5555591583252 3 17.85910987854004 3 17 L 3 4.555560111999512 C 3 3.696449995040894 3.696449995040894 3 4.555560111999512 3 L 13.88889026641846 3 C 14.7480001449585 3 15.44443988800049 3.696449995040894 15.44443988800049 4.555560111999512 L 15.44443988800049 17 C 15.44443988800049 17.85910987854004 14.7480001449585 18.5555591583252 13.88889026641846 18.5555591583252 Z M 29.44445037841797 13.88889026641846 L 20.11111068725586 13.88889026641846 C 19.25200080871582 13.88889026641846 18.5555591583252 13.19244003295898 18.5555591583252 12.33333015441895 L 18.5555591583252 4.555560111999512 C 18.5555591583252 3.696449995040894 19.25200080871582 3 20.11111068725586 3 L 29.44445037841797 3 C 30.30356025695801 3 31 3.696449995040894 31 4.555560111999512 L 31 12.33333015441895 C 31 13.19244003295898 30.30356025695801 13.88889026641846 29.44445037841797 13.88889026641846 Z" stroke="none" fill="#f3bf4f"/>
  </g>
</svg>
