<svg xmlns="http://www.w3.org/2000/svg" width="30" height="30" viewBox="0 0 30 30">
  <g id="Group_4273" data-name="Group 4273" transform="translate(-227 -959)">
    <rect id="Rectangle_143" data-name="Rectangle 143" width="30" height="30" transform="translate(227 959)" fill="none"/>
    <path id="attach_money" d="M12.784,12.319c-2.678-.7-3.539-1.416-3.539-2.536C9.245,8.5,10.437,7.6,12.431,7.6c2.1,0,2.878,1,2.949,2.477h2.607A4.7,4.7,0,0,0,14.2,5.583V3H10.661V5.548c-2.288.5-4.129,1.982-4.129,4.258,0,2.725,2.253,4.082,5.544,4.872,2.949.708,3.539,1.746,3.539,2.843,0,.814-.578,2.112-3.185,2.112-2.43,0-3.386-1.085-3.515-2.477H6.32c.142,2.583,2.076,4.034,4.341,4.518v2.56H14.2V21.7c2.3-.436,4.129-1.769,4.129-4.188C18.329,14.159,15.462,13.015,12.784,12.319Z" transform="translate(229.675 960.383)" fill="#3883e1"/>
  </g>
</svg>
