<svg xmlns="http://www.w3.org/2000/svg" width="30" height="30" viewBox="0 0 30 30">
  <g id="Group_4268" data-name="Group 4268" transform="translate(-227 -659)">
    <rect id="Rectangle_143" data-name="Rectangle 143" width="30" height="30" transform="translate(227 659)" fill="none"/>
    <path id="noun-document-5200769" d="M135.613,16.313h1.7v-1.7a.617.617,0,0,1,.617-.617h15.381a.617.617,0,0,1,.617.617V34.481a.617.617,0,0,1-.617.617h-1.7v1.7a.617.617,0,0,1-.617.617H135.613A.617.617,0,0,1,135,36.8V16.93A.617.617,0,0,1,135.613,16.313Zm2.553,4.351a.617.617,0,0,1,0-1.233H148.44a.617.617,0,0,1,0,1.233Zm0,13.638a.617.617,0,0,1,0-1.233h6.313a.617.617,0,1,1,0,1.233Zm0-3.409a.617.617,0,0,1,0-1.233h8.193a.617.617,0,1,1,0,1.233Zm0-3.409a.617.617,0,0,1,0-1.233H148.44a.617.617,0,0,1,0,1.233Zm0-3.409a.617.617,0,0,1,0-1.233H148.44a.617.617,0,0,1,0,1.233Zm.385-7.76h12.443a.617.617,0,0,1,.617.617V33.865H152.7V15.226H138.551v1.088Zm11.826,1.233H136.229V36.186h14.147Z" transform="translate(97.536 648.294)" fill="#3883e1"/>
  </g>
</svg>
