<svg xmlns="http://www.w3.org/2000/svg" width="34.412" height="32.787" viewBox="0 0 34.412 32.787">
  <g id="Group_4284" data-name="Group 4284" transform="translate(-223.794 -2009.606)">
    <rect id="Rectangle_143" data-name="Rectangle 143" width="30" height="30" transform="translate(226 2011)" fill="none"/>
    <path id="Path_4276" data-name="Path 4276" d="M161.59,326.93h-.711a.609.609,0,0,0,0,1.218h.711a.609.609,0,0,0,0-1.218Z" transform="translate(66.975 1702.469)" fill="#3883e1"/>
    <path id="Path_4277" data-name="Path 4277" d="M217.59,326.93h-.711a.609.609,0,0,0,0,1.218h.711a.609.609,0,0,0,0-1.218Z" transform="translate(15.035 1702.469)" fill="#3883e1"/>
    <path id="Path_4278" data-name="Path 4278" d="M273.59,326.93h-.711a.609.609,0,0,0,0,1.218h.711a.609.609,0,1,0,0-1.218Z" transform="translate(-36.904 1702.469)" fill="#3883e1"/>
    <path id="Path_4279" data-name="Path 4279" d="M161.59,382.93h-.711a.609.609,0,1,0,0,1.218h.711a.609.609,0,0,0,0-1.218Z" transform="translate(66.975 1650.529)" fill="#3883e1"/>
    <path id="Path_4280" data-name="Path 4280" d="M217.59,382.93h-.711a.609.609,0,1,0,0,1.218h.711a.609.609,0,0,0,0-1.218Z" transform="translate(15.035 1650.529)" fill="#3883e1"/>
    <path id="Path_4281" data-name="Path 4281" d="M273.59,382.93h-.711a.609.609,0,0,0,0,1.218h.711a.609.609,0,1,0,0-1.218Z" transform="translate(-36.904 1650.529)" fill="#3883e1"/>
    <path id="Path_4282" data-name="Path 4282" d="M161.59,438.93h-.711a.609.609,0,1,0,0,1.218h.711a.609.609,0,0,0,0-1.218Z" transform="translate(66.975 1598.59)" fill="#3883e1"/>
    <path id="Path_4283" data-name="Path 4283" d="M217.59,438.93h-.711a.609.609,0,1,0,0,1.218h.711a.609.609,0,0,0,0-1.218Z" transform="translate(15.035 1598.59)" fill="#3883e1"/>
    <path id="Path_4284" data-name="Path 4284" d="M273.59,438.93h-.711a.609.609,0,0,0,0,1.218h.711a.609.609,0,1,0,0-1.218Z" transform="translate(-36.904 1598.59)" fill="#3883e1"/>
    <path id="Path_4285" data-name="Path 4285" d="M169.712,270.93h-8.831a.609.609,0,1,0,0,1.218h8.831a.609.609,0,1,0,0-1.218Z" transform="translate(66.974 1754.41)" fill="#3883e1"/>
    <path id="Path_4286" data-name="Path 4286" d="M147.078,56.163a2.237,2.237,0,0,0-2.233-2.233H125.051a2.237,2.237,0,0,0-2.233,2.233v9.948H114.9a2.237,2.237,0,0,0-2.233,2.233v16.14a2.238,2.238,0,0,0,2.233,2.233h12.485a2.238,2.238,0,0,0,2.233-2.233V81.438h15.226a2.238,2.238,0,0,0,2.233-2.233ZM128.4,84.484a1.015,1.015,0,0,1-1.015,1.015H114.9a1.015,1.015,0,0,1-1.015-1.015V68.344a1.015,1.015,0,0,1,1.015-1.015h12.486a1.015,1.015,0,0,1,1.015,1.015Zm17.459-5.278a1.015,1.015,0,0,1-1.015,1.015H129.619V68.344a2.237,2.237,0,0,0-2.233-2.233h-3.35V56.163a1.015,1.015,0,0,1,1.015-1.015h19.794a1.015,1.015,0,0,1,1.015,1.015Z" transform="translate(111.127 1955.676)" fill="#3883e1"/>
    <path id="Path_4287" data-name="Path 4287" d="M307.19,125.33h-.71a.609.609,0,1,0,0,1.218h.71a.609.609,0,1,0,0-1.218Z" transform="translate(-68.068 1889.453)" fill="#3883e1"/>
    <path id="Path_4288" data-name="Path 4288" d="M388.112,125.33h-8.831a.609.609,0,0,0,0,1.218h8.831a.609.609,0,1,0,0-1.218Z" transform="translate(-135.59 1889.453)" fill="#3883e1"/>
    <path id="Path_4289" data-name="Path 4289" d="M307.19,181.33h-.71a.609.609,0,1,0,0,1.218h.71a.609.609,0,1,0,0-1.218Z" transform="translate(-68.068 1837.514)" fill="#3883e1"/>
    <path id="Path_4290" data-name="Path 4290" d="M388.112,181.33h-8.831a.609.609,0,0,0,0,1.218h8.831a.609.609,0,1,0,0-1.218Z" transform="translate(-135.59 1837.514)" fill="#3883e1"/>
    <path id="Path_4291" data-name="Path 4291" d="M388.112,237.33h-8.831a.609.609,0,0,0,0,1.218h8.831a.609.609,0,1,0,0-1.218Z" transform="translate(-135.59 1785.572)" fill="#3883e1"/>
    <path id="Path_4292" data-name="Path 4292" d="M388.112,293.33h-8.831a.609.609,0,0,0,0,1.218h8.831a.609.609,0,1,0,0-1.218Z" transform="translate(-135.59 1733.633)" fill="#3883e1"/>
    <path id="Path_4293" data-name="Path 4293" d="M388.112,349.33h-8.831a.609.609,0,0,0,0,1.218h8.831a.609.609,0,1,0,0-1.218Z" transform="translate(-135.59 1681.693)" fill="#3883e1"/>
  </g>
</svg>
