<svg xmlns="http://www.w3.org/2000/svg" width="21.151" height="21.151" viewBox="0 0 21.151 21.151">
  <g id="Group_3256" data-name="Group 3256" transform="translate(-407.016 -788)">
    <g id="Path_3389" data-name="Path 3389" transform="translate(407.016 788)" fill="none">
      <path d="M10.576,0A10.576,10.576,0,1,1,0,10.576,10.576,10.576,0,0,1,10.576,0Z" stroke="none"/>
      <path d="M 10.57573795318604 2.5 C 6.122757911682129 2.5 2.499998092651367 6.122759819030762 2.499998092651367 10.57572937011719 C 2.499998092651367 15.02869987487793 6.122757911682129 18.65145874023438 10.57573795318604 18.65145874023438 C 15.02871799468994 18.65145874023438 18.6514778137207 15.02869987487793 18.6514778137207 10.57572937011719 C 18.6514778137207 6.122759819030762 15.02871799468994 2.5 10.57573795318604 2.5 M 10.57573795318604 0 C 16.41655731201172 0 21.1514778137207 4.734918594360352 21.1514778137207 10.57572937011719 C 21.1514778137207 16.41653823852539 16.41655731201172 21.15145874023438 10.57573795318604 21.15145874023438 C 4.734918594360352 21.15145874023438 -1.9073486328125e-06 16.41653823852539 -1.9073486328125e-06 10.57572937011719 C -1.9073486328125e-06 4.734918594360352 4.734918594360352 0 10.57573795318604 0 Z" stroke="none" fill="#7e91b0"/>
    </g>
    <path id="check-3" d="M7.3,12.956l-2.9-2.9-.989.982L7.3,14.926l8.354-8.354-.982-.982Z" transform="translate(408.059 788.318)" fill="none"/>
  </g>
</svg>
