<svg xmlns="http://www.w3.org/2000/svg" width="36.977" height="18.488" viewBox="0 0 36.977 18.488">
  <path id="groups" d="M18.488,16.4a16.348,16.348,0,0,1,6.533,1.387,4.6,4.6,0,0,1,2.712,4.206v2.5H9.244V22.008A4.566,4.566,0,0,1,11.956,17.8,16.085,16.085,0,0,1,18.488,16.4Zm-12.326.385A3.081,3.081,0,1,0,3.081,13.7,3.09,3.09,0,0,0,6.163,16.785ZM7.9,18.48a10.758,10.758,0,0,0-1.741-.154,10.709,10.709,0,0,0-4.283.894A3.1,3.1,0,0,0,0,22.069v2.419H6.933V22.008A6.931,6.931,0,0,1,7.9,18.48Zm22.91-1.695A3.081,3.081,0,1,0,27.732,13.7,3.09,3.09,0,0,0,30.814,16.785Zm6.163,5.285a3.1,3.1,0,0,0-1.88-2.85,10.474,10.474,0,0,0-6.024-.74,6.931,6.931,0,0,1,.971,3.528v2.481h6.933ZM18.488,6a4.622,4.622,0,1,1-4.622,4.622A4.616,4.616,0,0,1,18.488,6Z" transform="translate(0 -6)" fill="#3687e8"/>
</svg>
