<svg xmlns="http://www.w3.org/2000/svg" width="46.517" height="54.54" viewBox="0 0 46.517 54.54">
  <path id="icon_file_copy" data-name="icon file copy" d="M465.8,423.54A12.838,12.838,0,0,1,453.013,410.7V381.3A12.273,12.273,0,0,1,465.231,369H479.7a1.251,1.251,0,0,1,1.245,1.254v8.781a9.127,9.127,0,0,0,9.052,9.108c1.157,0,2.172,0,3.07.016h3.286c.627,0,1.33-.014,1.959-.014a1.224,1.224,0,0,1,1.22,1.225V411.3a12.218,12.218,0,0,1-12.165,12.244Zm.027-17.341a2.065,2.065,0,0,0,2.033,2.045H482.6a2.065,2.065,0,0,0,2.033-2.045,2.027,2.027,0,0,0-2.033-2.021H467.86a2.027,2.027,0,0,0-2.03,2.018Zm0-13.608a2.027,2.027,0,0,0,2.033,2.018h9.153a2.027,2.027,0,0,0,2.033-2.018,2.065,2.065,0,0,0-2.033-2.045H467.86a2.065,2.065,0,0,0-2.03,2.042Zm24.528-8.429a5.513,5.513,0,0,1-5.473-5.5v-7.191a1.295,1.295,0,0,1,2.227-.911l10.907,11.418a1.3,1.3,0,0,1-.93,2.2H495.2c-1.707.005-3.469,0-4.84-.016Z" transform="translate(-453.013 -369)" fill="#3687e8"/>
</svg>
