<svg id="info-circle" xmlns="http://www.w3.org/2000/svg" width="20.54" height="20.54" viewBox="0 0 20.54 20.54">
  <path id="info-circle-2" data-name="info-circle" d="M18.27,8A10.27,10.27,0,1,0,28.54,18.27,10.272,10.272,0,0,0,18.27,8Zm0,4.555a1.739,1.739,0,1,1-1.739,1.739A1.739,1.739,0,0,1,18.27,12.555Zm2.319,10.518a.5.5,0,0,1-.5.5H16.448a.5.5,0,0,1-.5-.5V22.08a.5.5,0,0,1,.5-.5h.5v-2.65h-.5a.5.5,0,0,1-.5-.5v-.994a.5.5,0,0,1,.5-.5H19.1a.5.5,0,0,1,.5.5v4.141h.5a.5.5,0,0,1,.5.5Z" transform="translate(-8 -8)" fill="#ea3f3f"/>
</svg>
