<svg xmlns="http://www.w3.org/2000/svg" width="23.406" height="23.406" viewBox="0 0 23.406 23.406">
  <path id="badge-check" d="M15.113,7.985a.351.351,0,0,0-.5,0l-4.7,4.7L7.788,10.563a.351.351,0,0,0-.5,0l-.495.495a.35.35,0,0,0,0,.495l2.868,2.868a.35.35,0,0,0,.495,0l5.446-5.446a.35.35,0,0,0,0-.495ZM22.406,11.2a4.332,4.332,0,0,0-2.171-3.742,4.311,4.311,0,0,0-5.291-5.291,4.31,4.31,0,0,0-7.483,0A4.311,4.311,0,0,0,2.171,7.461a4.31,4.31,0,0,0,0,7.483,4.311,4.311,0,0,0,5.291,5.291,4.31,4.31,0,0,0,7.483,0,4.311,4.311,0,0,0,5.291-5.291A4.332,4.332,0,0,0,22.406,11.2Zm-3.987,2.989c.232.516,1.291,2.367-.284,3.943-1.265,1.265-2.516.932-3.943.284-.2.53-.757,2.586-2.989,2.586-2.28,0-2.831-2.166-2.989-2.586-1.427.648-2.683.972-3.943-.284-1.61-1.606-.477-3.523-.284-3.943-.53-.2-2.586-.757-2.586-2.989,0-2.28,2.166-2.831,2.586-2.989C3.755,7.7,2.7,5.847,4.271,4.271c1.61-1.615,3.536-.468,3.943-.284.2-.53.757-2.586,2.989-2.586,2.28,0,2.831,2.166,2.989,2.586.516-.232,2.367-1.291,3.943.284,1.61,1.606.477,3.523.284,3.943.53.2,2.586.757,2.586,2.989C21.005,13.483,18.839,14.034,18.419,14.192Z" transform="translate(0.5 0.5)" fill="#3883e1" stroke="#3883e1" stroke-width="1"/>
</svg>
