<svg xmlns="http://www.w3.org/2000/svg" width="30" height="30" viewBox="0 0 30 30">
  <g id="Group_4272" data-name="Group 4272" transform="translate(-227 -899)">
    <rect id="Rectangle_143" data-name="Rectangle 143" width="30" height="30" transform="translate(227 899)" fill="none"/>
    <path id="noun-protect-3823427" d="M178.483,38.984l-9.817-3.927a.982.982,0,0,0-.727,0l-9.817,3.927a.982.982,0,0,0-.618.913v11.78c0,5.36,9.3,10.16,10.357,10.69a.982.982,0,0,0,.884,0c1.06-.53,10.357-5.331,10.357-10.69V39.9a.982.982,0,0,0-.618-.913Z" transform="translate(73.698 865.27)" fill="none" stroke="#3883e1" stroke-width="2"/>
    <path id="check" d="M40.091,80.061l-8.184,8.184L28.9,85.238a.373.373,0,0,0-.528,0l-.88.88a.373.373,0,0,0,0,.528L31.643,90.8a.373.373,0,0,0,.528,0L41.5,81.469a.373.373,0,0,0,0-.528l-.88-.88A.373.373,0,0,0,40.091,80.061Z" transform="translate(207.584 826.907)" fill="#3883e1"/>
  </g>
</svg>
