<svg xmlns="http://www.w3.org/2000/svg" width="30" height="30" viewBox="0 0 30 30">
  <g id="Group_4282" data-name="Group 4282" transform="translate(-226 -1891)">
    <rect id="Rectangle_143" data-name="Rectangle 143" width="30" height="30" transform="translate(226 1891)" fill="none"/>
    <path id="Path_4259" data-name="Path 4259" d="M174.487,47.978a1.928,1.928,0,0,0-1.743,0l-6.876,3.484a1.8,1.8,0,0,0-.995,1.408,34.724,34.724,0,0,0,.152,9.467,10.087,10.087,0,0,0,3.225,4.84,30.868,30.868,0,0,0,4.507,3.434,1.606,1.606,0,0,0,1.723.006,30.238,30.238,0,0,0,4.542-3.426,9.658,9.658,0,0,0,3.178-4.84,35.416,35.416,0,0,0,.164-9.509,1.764,1.764,0,0,0-.98-1.369Zm-2.323-1.146a3.211,3.211,0,0,1,2.9,0l6.9,3.5a3.05,3.05,0,0,1,1.676,2.373,36.679,36.679,0,0,1-.176,9.874c-.365,2.075-1.914,4.006-3.565,5.555a31.514,31.514,0,0,1-4.742,3.579,2.891,2.891,0,0,1-3.09-.011,32.144,32.144,0,0,1-4.7-3.584,11.3,11.3,0,0,1-3.6-5.525,35.942,35.942,0,0,1-.17-9.853,3.085,3.085,0,0,1,1.692-2.42Z" transform="translate(67.384 1847.684)" fill="#3883e1" stroke="#3883e1" stroke-width="0.5" fill-rule="evenodd"/>
    <path id="Path_4260" data-name="Path 4260" d="M285.9,184.449a2.451,2.451,0,1,0,2.451,2.451A2.451,2.451,0,0,0,285.9,184.449Zm-3.736,2.451a3.736,3.736,0,1,1,3.736,3.736A3.736,3.736,0,0,1,282.164,186.9Z" transform="translate(-44.9 1718.531)" fill="#3883e1" stroke="#3883e1" stroke-width="0.5" fill-rule="evenodd"/>
    <path id="Path_4261" data-name="Path 4261" d="M234.247,301.815a5.789,5.789,0,0,0-5.462,5.681.643.643,0,0,1-1.285,0,6.75,6.75,0,1,1,13.493,0,.642.642,0,0,1-1.285,0A5.789,5.789,0,0,0,234.247,301.815Z" transform="translate(6.753 1607.629)" fill="#3883e1" stroke="#3883e1" stroke-width="0.5" fill-rule="evenodd"/>
  </g>
</svg>
