<svg xmlns="http://www.w3.org/2000/svg" width="32.253" height="31.985" viewBox="0 0 32.253 31.985">
  <g id="Group_4270" data-name="Group 4270" transform="translate(-227 -779)">
    <rect id="Rectangle_143" data-name="Rectangle 143" width="30" height="30" transform="translate(227 779)" fill="none"/>
    <path id="noun-document-5200769" d="M135.651,16.458h1.811V14.647a.655.655,0,0,1,.655-.655H154.46a.655.655,0,0,1,.655.655V35.762a.655.655,0,0,1-.655.655h-1.811v1.811a.655.655,0,0,1-.655.655H135.651a.655.655,0,0,1-.655-.655V17.113A.655.655,0,0,1,135.651,16.458Zm2.712,4.623a.655.655,0,0,1,0-1.31H149.28a.655.655,0,0,1,0,1.31Zm0,14.49a.655.655,0,0,1,0-1.31h6.707a.655.655,0,1,1,0,1.31Zm0-3.623a.655.655,0,0,1,0-1.31h8.705a.655.655,0,1,1,0,1.31Zm0-3.622a.655.655,0,0,1,0-1.31H149.28a.655.655,0,0,1,0,1.31Zm0-3.623a.655.655,0,0,1,0-1.31H149.28a.655.655,0,0,1,0,1.31Zm.409-8.245h13.221a.655.655,0,0,1,.655.655V35.107H153.8V15.3H138.773v1.156Zm12.565,1.31H136.306v19.8h15.032Z" transform="translate(96.945 767.563)" fill="#3883e1"/>
    <path id="bxs-check-circle" d="M10.185,2a8.185,8.185,0,1,0,8.185,8.185A8.194,8.194,0,0,0,10.185,2Z" transform="translate(240.883 792.615)" fill="#102141"/>
    <g id="bx-check-circle" transform="translate(242.883 794.615)">
      <path id="Path_4106" data-name="Path 4106" d="M10.185,2a8.185,8.185,0,1,0,8.185,8.185A8.194,8.194,0,0,0,10.185,2Zm0,14.733a6.548,6.548,0,1,1,6.548-6.548A6.556,6.556,0,0,1,10.185,16.733Z" transform="translate(-2 -2)" fill="#3883e1"/>
      <path id="attach_money" d="M9.135,7.058c-1.166-.3-1.541-.616-1.541-1.1,0-.56.519-.95,1.387-.95.914,0,1.253.437,1.284,1.079H11.4A2.048,2.048,0,0,0,9.752,4.125V3H8.21V4.11a2,2,0,0,0-1.8,1.854c0,1.187.981,1.777,2.414,2.122,1.284.308,1.541.76,1.541,1.238,0,.354-.252.92-1.387.92-1.058,0-1.474-.473-1.531-1.079H6.32a2.152,2.152,0,0,0,1.89,1.967v1.115H9.752v-1.1c1-.19,1.8-.771,1.8-1.824C11.55,7.86,10.3,7.361,9.135,7.058Z" transform="translate(-0.818 0.494)" fill="#3883e1"/>
    </g>
  </g>
</svg>
