<svg id="Loading_Transit_Unloading" data-name="Loading, Transit &amp; Unloading" xmlns="http://www.w3.org/2000/svg" width="36" height="36" viewBox="0 0 36 36">
  <rect id="Rectangle_143" data-name="Rectangle 143" width="36" height="36" fill="none"/>
  <path id="truck" d="M27.3,16.1h-.7v-5.08a3.168,3.168,0,0,0-.923-2.227L22.006,5.123A3.175,3.175,0,0,0,19.779,4.2H18.2V2.45A2.452,2.452,0,0,0,15.75,0H2.45A2.452,2.452,0,0,0,0,2.45v13.3A2.452,2.452,0,0,0,2.45,18.2H2.8a4.2,4.2,0,1,0,8.4,0h5.6a4.2,4.2,0,1,0,8.4,0h2.1a.7.7,0,0,0,.7-.7v-.7A.7.7,0,0,0,27.3,16.1ZM7,20.3a2.1,2.1,0,1,1,2.1-2.1A2.1,2.1,0,0,1,7,20.3Zm9.1-4.2H10.618a4.167,4.167,0,0,0-7.236,0H2.45a.351.351,0,0,1-.35-.35V2.45a.351.351,0,0,1,.35-.35h13.3a.351.351,0,0,1,.35.35Zm2.1-9.8h1.579a1.076,1.076,0,0,1,.744.306L23.717,9.8H18.2Zm2.8,14a2.1,2.1,0,1,1,2.1-2.1A2.1,2.1,0,0,1,21,20.3Zm3.5-4.414a4.171,4.171,0,0,0-6.3-.8V11.9h6.3Z" transform="translate(4.5 6.5)" fill="#3883e1" stroke="#3883e1" stroke-width="0.5"/>
</svg>
