<svg xmlns="http://www.w3.org/2000/svg" width="328.508" height="54.577" viewBox="0 0 328.508 54.577">
  <g id="Group_411" data-name="Group 411" transform="translate(-108.517 -601)">
    <g id="Group_378" data-name="Group 378" transform="translate(290.894 601)">
      <path id="Path_3313" data-name="Path 3313" d="M470.492,263.247a6.843,6.843,0,0,0-1.884-10.857,27.534,27.534,0,0,0-20.878.4c10.784-2.534,21.567,9.662,16.131,12.761,4.9-.074,5.288-.935,6.631-2.307Z" transform="translate(-431.284 -250.53)" fill="#2075bc" fill-rule="evenodd"/>
      <path id="Path_3314" data-name="Path 3314" d="M422.23,312.292c9.022-5.584,23.363,2.027,33.069,3.217,7.109.9,13.784-1.146,16.279-8.353a27.376,27.376,0,0,0,.448-16.426,12.134,12.134,0,0,1-1.791,3.768,13.354,13.354,0,0,1-3.331,3.321c-8.752,6.061-22.153,2.77-32.783,5.569-5.067,1.338-9.337,4.049-11.89,8.9Z" transform="translate(-418.329 -270.954)" fill="#2075bc" fill-rule="evenodd"/>
      <path id="Path_3315" data-name="Path 3315" d="M439.96,347.924A27.471,27.471,0,0,0,475,343.25c-5,4.319-12.412,2.652-19.924,2.174-5.2-.33-10.474-.212-15.118,2.5Z" transform="translate(-427.336 -297.636)" fill="#2075bc" fill-rule="evenodd"/>
      <path id="Path_3316" data-name="Path 3316" d="M451.634,254.32c3.763,1.7,3.316,7.369.689,10.065-5.18,5.318-18.852,4.87-24.779,6.09-6.051,1.235-10.71,3.321-13.233,9.278,3.3-3.857,10.247-3.606,14.847-3.1,9.6,1.058,28.1,7.369,34.786-2.219a9.023,9.023,0,0,0-.089-10.69,27.5,27.5,0,0,0-12.22-9.426Z" transform="translate(-414.305 -252.455)" fill="#2075bc" fill-rule="evenodd"/>
      <path id="Path_3317" data-name="Path 3317" d="M421.549,311.929a22.576,22.576,0,0,1,8.486-4.123,57.406,57.406,0,0,1,13.086-1.476,136.58,136.58,0,0,0-13.8-2.381c-3.572-.33-9.126-.58-12.023,1.683-4.354,3.38-.831,10.395,4.25,6.3Z" transform="translate(-414.824 -277.562)" fill="#2075bc" fill-rule="evenodd"/>
      <path id="Path_3318" data-name="Path 3318" d="M415.24,276.769c2.794-7.906,14.473-9.081,20.76-9.677,5.259-.507,5.913-7.67-.615-8.624-5.062-.743-11.531,2.475-14.562,6.208a27.342,27.342,0,0,0-5.584,12.092Z" transform="translate(-414.778 -254.509)" fill="#2075bc" fill-rule="evenodd"/>
      <path id="Path_3319" data-name="Path 3319" d="M415.24,276.764c2.238-8.486,8.171-15.442,18.6-15.934,6.705-.33,5.589,6.016,2.165,6.253,5.259-.507,5.913-7.669-.615-8.624-5.062-.743-11.531,2.474-14.562,6.208a27.386,27.386,0,0,0-5.584,12.1Z" transform="translate(-414.778 -254.504)" fill="#2075bc" fill-rule="evenodd"/>
      <path id="Path_3320" data-name="Path 3320" d="M417.283,307.59c-4.349,3.38-.822,10.395,4.255,6.3a22.576,22.576,0,0,1,8.486-4.122,57.4,57.4,0,0,1,13.086-1.476c-6.469-.743-14.114-1.52-22.27,3.857-4.049,2.666-6.72-1.476-3.557-4.555Z" transform="translate(-414.818 -279.519)" fill="#2075bc" fill-rule="evenodd"/>
      <path id="Path_3321" data-name="Path 3321" d="M485.277,254.32c3.153,1.9,1.761,6.238-.418,8.038a2.5,2.5,0,0,1-3.763-.251c1.255,2.219,1.284,4.319-.566,5.377a13.351,13.351,0,0,0,5.436-3.1c2.627-2.7,3.075-8.368-.689-10.065Z" transform="translate(-447.948 -252.455)" fill="#2075bc" fill-rule="evenodd"/>
      <path id="Path_3322" data-name="Path 3322" d="M414.3,284.4c3.3-3.857,10.247-3.606,14.847-3.1,9.6,1.058,28.1,7.369,34.786-2.219a9.023,9.023,0,0,0-.089-10.69,27.821,27.821,0,0,0-4.6-4.929c3.916,3.8,1.943,9.588-2.091,12.343-6.42,4.378-18.045,1.83-27.707,2.071-5.962.148-11.428,1.279-15.147,6.523Z" transform="translate(-414.3 -257.099)" fill="#2075bc" fill-rule="evenodd"/>
      <path id="Path_3323" data-name="Path 3323" d="M422.23,312.292c7.364-7.847,25.749-1.535,38.313-3.276,8.127-1.117,12.618-5.987,12.382-13.73a28.365,28.365,0,0,0-.9-4.555,12.133,12.133,0,0,1-1.791,3.768,13.35,13.35,0,0,1-3.331,3.321c-8.752,6.061-22.152,2.77-32.783,5.569-5.072,1.338-9.342,4.049-11.9,8.9Z" transform="translate(-418.329 -270.954)" fill="#2075bc" fill-rule="evenodd"/>
      <path id="Path_3324" data-name="Path 3324" d="M446.2,350.865c8.752-4.915,19.284.374,26.408-5.288A27.476,27.476,0,0,0,475,343.24c-5,4.319-12.412,2.652-19.924,2.174-5.2-.33-10.469-.207-15.118,2.5a26.974,26.974,0,0,0,6.243,2.947Z" transform="translate(-427.336 -297.631)" fill="#2075bc" fill-rule="evenodd"/>
    </g>
    <path id="Path_3325" data-name="Path 3325" d="M26.344-18.029q-2.289-6.153-8.657-6.153A7.56,7.56,0,0,0,12.32-22.25a5.98,5.98,0,0,0-2.075,4.507,6,6,0,0,0,1.61,4.329A17.074,17.074,0,0,0,15.9-10.374q2.433,1.359,5.223,2.611a27.312,27.312,0,0,1,5.223,3.076A15.964,15.964,0,0,1,30.386-.25,12.574,12.574,0,0,1,32,6.44a15.54,15.54,0,0,1-1.359,6.546,14.412,14.412,0,0,1-3.863,5.08,17.34,17.34,0,0,1-5.974,3.22,25.43,25.43,0,0,1-7.763,1.109,26.481,26.481,0,0,1-6.9-.823,13.3,13.3,0,0,1-4.615-2.039q.715-2.5,1.216-4.579t.859-4.507H4.951a9.5,9.5,0,0,0,3.076,5.438,8.833,8.833,0,0,0,2.933,1.681,11.522,11.522,0,0,0,3.863.608q4.293,0,6.332-2.146A7.215,7.215,0,0,0,23.2,10.876,6.308,6.308,0,0,0,21.621,6.44,15.677,15.677,0,0,0,17.686,3.4Q15.325,2.075,12.535.823A26.382,26.382,0,0,1,7.384-2.217a15.49,15.49,0,0,1-3.935-4.4,12.8,12.8,0,0,1-1.574-6.69A15.521,15.521,0,0,1,3.2-19.889,14.117,14.117,0,0,1,6.74-24.683a15.327,15.327,0,0,1,5.116-2.933,18.591,18.591,0,0,1,6.117-1,22.166,22.166,0,0,1,6.761.93,15.575,15.575,0,0,1,4.972,2.576q-.644,1.646-1.109,3.184t-1.181,3.9ZM44.874-7.87q0-5.938-.143-10.553T44.3-27.688q1.216.143,2.647.25t3.22.107q1.789,0,3.22-.107t2.647-.25q-.286,4.651-.429,9.265T55.463-7.87v9.73q0,5.938.143,10.553t.429,9.051a22.734,22.734,0,0,0-2.647-.143H46.949a22.734,22.734,0,0,0-2.647.143q.286-4.436.429-9.051t.143-10.553ZM77.714-10.8Q76.569-2.575,76,5.438L74.852,21.464a10.428,10.428,0,0,0-1.717-.143H69.808a10.218,10.218,0,0,0-1.681.143Q70.416,9.158,72.2-3T75.5-27.688q.787.143,1.467.25a9.418,9.418,0,0,0,1.467.107,9.177,9.177,0,0,0,1.359-.107q.715-.107,1.5-.25,1.932,4.293,4.042,8.729t4.221,8.836q2.111,4.4,4.221,8.621t4.042,8.013q4.293-8.013,8.55-16.778t8.12-17.422a16.038,16.038,0,0,0,3.076.358,15.8,15.8,0,0,0,3-.358q.715,6.153,1.538,13.236t1.61,13.844q.787,6.761,1.574,12.628t1.431,9.444q-1.431-.143-2.9-.143h-5.831q-1.5,0-3,.143-.358-7.369-1.181-15.955t-1.681-17.028h-.143q-4.078,8.442-8.013,16.6t-7.8,16.384q-.358-.072-.68-.107a6.475,6.475,0,0,0-1.359,0q-.322.036-.68.107Q89.59,13.451,85.763,5.438T77.857-10.8Zm82.135-3.148a14.889,14.889,0,0,0-.608-4.579A7.849,7.849,0,0,0,157.6-21.5a6.126,6.126,0,0,0-2.433-1.61,8.512,8.512,0,0,0-2.9-.5H149.9a2.66,2.66,0,0,0-.644.072q-.072,5.151-.107,10.124t-.036,9.981a19.858,19.858,0,0,0,3.685-.358,8.784,8.784,0,0,0,3.47-1.467,8.081,8.081,0,0,0,2.576-3.184A12.779,12.779,0,0,0,159.849-13.951ZM138.528-7.87q0-5.938-.143-10.553t-.429-9.265q1.216.143,2.647.25t3.22.107q2.5,0,5.187-.179t5.259-.179a32.782,32.782,0,0,1,7.942.751,11.057,11.057,0,0,1,4.507,2.182,11.87,11.87,0,0,1,3.363,4.15,12.9,12.9,0,0,1,1.073,5.509,16.564,16.564,0,0,1-1.359,7.012,12.15,12.15,0,0,1-3.828,4.758,16.6,16.6,0,0,1-5.831,2.683,29.756,29.756,0,0,1-7.369.859h-3.649q0,5.366.107,10.7t.465,10.553a22.734,22.734,0,0,0-2.647-.143H140.6a22.734,22.734,0,0,0-2.647.143q.286-4.436.429-9.051t.143-10.553Z" transform="translate(107 631.363)" fill="#2075bc"/>
    <path id="Path_3326" data-name="Path 3326" d="M25.787-14.634a15.759,15.759,0,0,0-.644-5.008,5.668,5.668,0,0,0-1.968-2.826,7.436,7.436,0,0,0-3.434-1.252,38.2,38.2,0,0,0-5.044-.286q-.215,9.73-.215,19.461.429.072.823.107t.751.036q4.722,0,7.226-2.54T25.787-14.634ZM14.482-1.47V1.464q0,5.938.143,10.553t.429,9.051a22.734,22.734,0,0,0-2.647-.143H5.968a22.734,22.734,0,0,0-2.647.143q.286-4.436.429-9.051T3.893,1.464v-9.73q0-5.938-.143-10.553t-.429-9.265q1.216.143,2.647.25t3.22.107q1.932,0,4.4-.179t6.117-.179q2.719,0,4.651.143a26.587,26.587,0,0,1,3.327.429,11.72,11.72,0,0,1,2.433.751,12.257,12.257,0,0,1,1.968,1.109,11.6,11.6,0,0,1,3.4,3.9,11.538,11.538,0,0,1,1.252,5.545,12.507,12.507,0,0,1-2.862,8.514,15.63,15.63,0,0,1-8.228,4.651q3.434,6.081,7.369,12.127t7.87,11.984q-1.646-.143-3.22-.143H31.188q-1.61,0-3.255.143L15.126-1.47ZM58.34-16.423q0-2.075-.036-3.792a17.6,17.6,0,0,0-.179-2.5q-1.073,0-2.647.072t-3.363.179q-1.789.107-3.649.286t-3.434.394q.143-.787.25-1.574a11.636,11.636,0,0,0,.107-1.574,11.636,11.636,0,0,0-.107-1.574q-.107-.787-.25-1.574,2.433.072,4.4.143t4.007.107q2.039.036,4.436.072t5.759.036q3.363,0,5.759-.036t4.4-.072q2-.036,3.9-.107t4.114-.143q-.143.787-.25,1.574a11.638,11.638,0,0,0-.107,1.574,11.638,11.638,0,0,0,.107,1.574q.107.787.25,1.574-1.431-.215-3.22-.394t-3.542-.286q-1.753-.107-3.327-.179t-2.647-.072a7.542,7.542,0,0,0-.107,1q-.036.644-.036,1.5V1.464q0,5.938.143,10.553t.429,9.051a22.734,22.734,0,0,0-2.647-.143H60.415a22.734,22.734,0,0,0-2.647.143q.286-4.436.429-9.051T58.34,1.464Z" transform="translate(355.218 632.575)" fill="#2075bc"/>
  </g>
</svg>
