<svg id="Logo" xmlns="http://www.w3.org/2000/svg" width="220" height="50" viewBox="0 0 220 50">
  <rect id="Rectangle_145" data-name="Rectangle 145" width="220" height="50" fill="none"/>
  <g id="Group_411" data-name="Group 411" transform="translate(-92.517 -592)">
    <g id="Group_378" data-name="Group 378" transform="translate(213.029 601)">
      <path id="Path_3313" data-name="Path 3313" d="M460.774,257.818a3.921,3.921,0,0,0-1.08-6.222,15.778,15.778,0,0,0-11.964.231c6.18-1.452,12.359,5.537,9.244,7.313,2.808-.042,3.031-.536,3.8-1.322Z" transform="translate(-438.306 -250.53)" fill="#2075bc" fill-rule="evenodd"/>
      <path id="Path_3314" data-name="Path 3314" d="M422.23,303.086c5.17-3.2,13.388,1.161,18.95,1.844,4.074.513,7.9-.657,9.328-4.787a15.688,15.688,0,0,0,.257-9.413,6.954,6.954,0,0,1-1.026,2.159,7.652,7.652,0,0,1-1.909,1.9c-5.015,3.473-12.695,1.587-18.787,3.191a10.216,10.216,0,0,0-6.814,5.1Z" transform="translate(-419.994 -279.397)" fill="#2075bc" fill-rule="evenodd"/>
      <path id="Path_3315" data-name="Path 3315" d="M439.96,345.928a15.743,15.743,0,0,0,20.081-2.678c-2.867,2.475-7.113,1.52-11.418,1.246-2.98-.189-6-.121-8.663,1.432Z" transform="translate(-432.726 -317.111)" fill="#2075bc" fill-rule="evenodd"/>
      <path id="Path_3316" data-name="Path 3316" d="M435.7,254.32c2.157.973,1.9,4.223.395,5.768-2.969,3.047-10.8,2.791-14.2,3.49-3.468.708-6.137,1.9-7.583,5.317,1.892-2.21,5.872-2.066,8.508-1.776,5.5.606,16.1,4.223,19.934-1.271a5.171,5.171,0,0,0-.051-6.126,15.758,15.758,0,0,0-7-5.4Z" transform="translate(-414.307 -253.252)" fill="#2075bc" fill-rule="evenodd"/>
      <path id="Path_3317" data-name="Path 3317" d="M418.894,308.431a12.937,12.937,0,0,1,4.863-2.362,32.894,32.894,0,0,1,7.5-.846,78.266,78.266,0,0,0-7.908-1.364c-2.047-.189-5.229-.333-6.89.964-2.495,1.937-.477,5.957,2.436,3.609Z" transform="translate(-415.04 -288.737)" fill="#2075bc" fill-rule="evenodd"/>
      <path id="Path_3318" data-name="Path 3318" d="M415.24,268.91c1.6-4.53,8.294-5.2,11.9-5.545,3.014-.29,3.389-4.4-.352-4.942-2.9-.426-6.608,1.418-8.345,3.558a15.669,15.669,0,0,0-3.2,6.929Z" transform="translate(-414.975 -256.154)" fill="#2075bc" fill-rule="evenodd"/>
      <path id="Path_3319" data-name="Path 3319" d="M415.24,268.9c1.283-4.863,4.683-8.849,10.656-9.131,3.842-.189,3.2,3.448,1.24,3.583,3.014-.29,3.389-4.4-.352-4.942-2.9-.426-6.608,1.418-8.345,3.558a15.694,15.694,0,0,0-3.2,6.932Z" transform="translate(-414.975 -256.146)" fill="#2075bc" fill-rule="evenodd"/>
      <path id="Path_3320" data-name="Path 3320" d="M416.445,307.59c-2.492,1.937-.471,5.957,2.439,3.608a12.937,12.937,0,0,1,4.863-2.362,32.892,32.892,0,0,1,7.5-.846c-3.707-.426-8.088-.871-12.762,2.21-2.32,1.528-3.851-.846-2.038-2.611Z" transform="translate(-415.032 -291.504)" fill="#2075bc" fill-rule="evenodd"/>
      <path id="Path_3321" data-name="Path 3321" d="M483.25,254.32c1.807,1.091,1.009,3.575-.24,4.606a1.434,1.434,0,0,1-2.157-.144c.719,1.271.736,2.475-.324,3.081a7.651,7.651,0,0,0,3.115-1.776c1.505-1.545,1.762-4.8-.395-5.768Z" transform="translate(-461.859 -253.252)" fill="#2075bc" fill-rule="evenodd"/>
      <path id="Path_3322" data-name="Path 3322" d="M414.3,275.458c1.892-2.21,5.872-2.066,8.508-1.776,5.5.606,16.1,4.223,19.934-1.271a5.171,5.171,0,0,0-.051-6.126,15.943,15.943,0,0,0-2.636-2.825c2.244,2.176,1.114,5.495-1.2,7.073-3.679,2.509-10.341,1.049-15.877,1.187-3.417.085-6.549.733-8.68,3.738Z" transform="translate(-414.3 -259.815)" fill="#2075bc" fill-rule="evenodd"/>
      <path id="Path_3323" data-name="Path 3323" d="M422.23,303.086c4.22-4.5,14.755-.88,21.955-1.878,4.657-.64,7.231-3.431,7.1-7.868a16.256,16.256,0,0,0-.513-2.611,6.953,6.953,0,0,1-1.026,2.159,7.65,7.65,0,0,1-1.909,1.9c-5.015,3.473-12.695,1.587-18.787,3.191a10.215,10.215,0,0,0-6.817,5.1Z" transform="translate(-419.994 -279.397)" fill="#2075bc" fill-rule="evenodd"/>
      <path id="Path_3324" data-name="Path 3324" d="M443.537,347.61c5.015-2.816,11.051.214,15.133-3.031a15.746,15.746,0,0,0,1.37-1.339c-2.867,2.475-7.113,1.52-11.418,1.246-2.98-.189-6-.118-8.663,1.435a15.458,15.458,0,0,0,3.578,1.689Z" transform="translate(-432.726 -317.104)" fill="#2075bc" fill-rule="evenodd"/>
    </g>
    <path id="Path_3325" data-name="Path 3325" d="M15.744-22.55a4.909,4.909,0,0,0-4.961-3.526,4.333,4.333,0,0,0-3.075,1.107,3.427,3.427,0,0,0-1.189,2.583,3.439,3.439,0,0,0,.923,2.48,9.784,9.784,0,0,0,2.317,1.743q1.394.779,2.993,1.5A15.651,15.651,0,0,1,15.744-14.9a9.148,9.148,0,0,1,2.316,2.542,7.205,7.205,0,0,1,.923,3.833A8.9,8.9,0,0,1,18.2-4.776,8.259,8.259,0,0,1,15.99-1.865,9.937,9.937,0,0,1,12.566-.021,14.573,14.573,0,0,1,8.118.615,15.175,15.175,0,0,1,4.161.144,7.62,7.62,0,0,1,1.517-1.025q.41-1.435.7-2.624t.492-2.583h.779A5.409,5.409,0,0,0,4.1-4.53,5.439,5.439,0,0,0,5.248-3.116a5.062,5.062,0,0,0,1.681.964A6.6,6.6,0,0,0,9.143-1.8a4.794,4.794,0,0,0,3.628-1.23A4.134,4.134,0,0,0,13.94-5.986a3.615,3.615,0,0,0-.9-2.542,8.984,8.984,0,0,0-2.255-1.743q-1.353-.758-2.952-1.476a15.118,15.118,0,0,1-2.952-1.743A8.877,8.877,0,0,1,2.624-16.01a7.335,7.335,0,0,1-.9-3.833,8.894,8.894,0,0,1,.758-3.772A8.09,8.09,0,0,1,4.51-26.363a8.783,8.783,0,0,1,2.932-1.681,10.654,10.654,0,0,1,3.505-.574,12.7,12.7,0,0,1,3.875.533,8.925,8.925,0,0,1,2.849,1.476q-.369.943-.635,1.824l-.677,2.234Zm10.619,5.822q0-3.4-.082-6.047t-.246-5.31q.7.082,1.517.143t1.845.062q1.025,0,1.845-.062t1.517-.143q-.164,2.665-.246,5.31t-.082,6.047v5.576q0,3.4.082,6.048T32.759.082A13.028,13.028,0,0,0,31.242,0h-3.69a13.028,13.028,0,0,0-1.517.082Q26.2-2.46,26.281-5.1t.082-6.048Zm18.819-1.681Q44.526-13.694,44.2-9.1L43.542.082A5.976,5.976,0,0,0,42.558,0H40.651a5.855,5.855,0,0,0-.963.082Q41-6.97,42.025-13.94t1.886-14.145q.451.082.84.143a5.4,5.4,0,0,0,.84.062,5.259,5.259,0,0,0,.779-.062q.41-.061.861-.143,1.107,2.46,2.317,5t2.419,5.063q1.209,2.522,2.419,4.941T56.7-8.487q2.46-4.592,4.9-9.614t4.653-9.984a9.191,9.191,0,0,0,1.763.2,9.053,9.053,0,0,0,1.722-.2q.41,3.526.882,7.585t.923,7.934q.451,3.875.9,7.236t.82,5.412Q72.447,0,71.606,0H68.265Q67.4,0,66.543.082q-.2-4.223-.676-9.143T64.9-18.819h-.082q-2.337,4.838-4.592,9.512T55.76.082q-.2-.041-.389-.062a3.71,3.71,0,0,0-.779,0q-.185.021-.389.062Q51.988-4.51,49.794-9.1t-4.53-9.307Zm47.068-1.8a8.532,8.532,0,0,0-.349-2.624,4.5,4.5,0,0,0-.943-1.7,3.511,3.511,0,0,0-1.394-.923,4.878,4.878,0,0,0-1.66-.287H86.551a1.524,1.524,0,0,0-.369.041q-.041,2.952-.062,5.8t-.021,5.72a11.38,11.38,0,0,0,2.112-.205,5.034,5.034,0,0,0,1.988-.84,4.631,4.631,0,0,0,1.476-1.825A7.323,7.323,0,0,0,92.25-20.213ZM80.032-16.728q0-3.4-.082-6.047t-.246-5.31q.7.082,1.517.143t1.845.062q1.435,0,2.972-.1t3.014-.1a18.786,18.786,0,0,1,4.551.431,6.336,6.336,0,0,1,2.583,1.25,6.8,6.8,0,0,1,1.927,2.378,7.391,7.391,0,0,1,.615,3.157,9.492,9.492,0,0,1-.779,4.018,6.963,6.963,0,0,1-2.193,2.726,9.514,9.514,0,0,1-3.341,1.537,17.052,17.052,0,0,1-4.223.492H86.1q0,3.075.062,6.129T86.428.082A13.028,13.028,0,0,0,84.911,0h-3.69A13.028,13.028,0,0,0,79.7.082q.164-2.542.246-5.186t.082-6.048Z" transform="translate(107 630.618)" fill="#fff"/>
    <path id="Path_3326" data-name="Path 3326" d="M16.195-20.377a9.031,9.031,0,0,0-.369-2.87,3.248,3.248,0,0,0-1.128-1.62,4.261,4.261,0,0,0-1.968-.717,21.89,21.89,0,0,0-2.891-.164Q9.717-20.172,9.717-14.6q.246.041.472.062t.431.021a5.559,5.559,0,0,0,4.141-1.455A6.045,6.045,0,0,0,16.195-20.377ZM9.717-12.833v1.681q0,3.4.082,6.048T10.045.082A13.028,13.028,0,0,0,8.528,0H4.838A13.028,13.028,0,0,0,3.321.082Q3.485-2.46,3.567-5.1t.082-6.048v-5.576q0-3.4-.082-6.047t-.246-5.31q.7.082,1.517.143t1.845.062q1.107,0,2.522-.1t3.505-.1q1.558,0,2.665.082a15.236,15.236,0,0,1,1.906.246,6.716,6.716,0,0,1,1.394.431,7.024,7.024,0,0,1,1.127.635,6.648,6.648,0,0,1,1.948,2.235,6.612,6.612,0,0,1,.717,3.177,7.167,7.167,0,0,1-1.64,4.879,8.957,8.957,0,0,1-4.715,2.665q1.968,3.485,4.223,6.95T24.846.082Q23.9,0,23,0h-3.71q-.922,0-1.865.082L10.086-12.833ZM34.85-21.4q0-1.189-.021-2.173a10.083,10.083,0,0,0-.1-1.435q-.615,0-1.517.041t-1.927.1q-1.025.062-2.091.164t-1.968.226q.082-.451.143-.9a6.668,6.668,0,0,0,.062-.9,6.668,6.668,0,0,0-.062-.9q-.061-.451-.143-.9,1.394.041,2.521.082t2.3.061q1.168.021,2.542.041t3.3.02q1.927,0,3.3-.02t2.521-.041q1.148-.02,2.234-.061t2.358-.082q-.082.451-.144.9a6.668,6.668,0,0,0-.062.9,6.668,6.668,0,0,0,.062.9q.062.451.144.9-.82-.123-1.845-.226t-2.03-.164q-1-.061-1.907-.1T41-25.01a4.322,4.322,0,0,0-.062.574q-.021.369-.021.861v12.423q0,3.4.082,6.048T41.246.082A13.028,13.028,0,0,0,39.729,0h-3.69a13.028,13.028,0,0,0-1.517.082q.164-2.542.246-5.186t.082-6.048Z" transform="translate(248.473 631.085)" fill="#fff"/>
  </g>
</svg>
