<svg id="Masters" xmlns="http://www.w3.org/2000/svg" width="36" height="36" viewBox="0 0 36 36">
  <rect id="Rectangle_143" data-name="Rectangle 143" width="36" height="36" fill="none"/>
  <path id="user" d="M17.15,16.625c-1.57,0-2.324.875-4.9.875s-3.325-.875-4.9-.875A7.352,7.352,0,0,0,0,23.975v1.4A2.626,2.626,0,0,0,2.625,28h19.25A2.626,2.626,0,0,0,24.5,25.375v-1.4A7.352,7.352,0,0,0,17.15,16.625Zm4.725,8.75H2.625v-1.4A4.733,4.733,0,0,1,7.35,19.25c.8,0,2.095.875,4.9.875,2.827,0,4.1-.875,4.9-.875a4.733,4.733,0,0,1,4.725,4.725ZM12.25,15.75A7.875,7.875,0,1,0,4.375,7.875,7.877,7.877,0,0,0,12.25,15.75Zm0-13.125A5.25,5.25,0,1,1,7,7.875,5.258,5.258,0,0,1,12.25,2.625Z" transform="translate(6 4)" fill="#3883e1"/>
</svg>
