<svg xmlns="http://www.w3.org/2000/svg" width="168.418" height="183.591" viewBox="0 0 168.418 183.591">
  <g id="Group_3638" data-name="Group 3638" transform="translate(-125.666 -125.666)">
    <g id="Group_3094" data-name="Group 3094" transform="matrix(0.643, 0.766, -0.766, 0.643, 195.892, 171.489)">
      <path id="Path_4052" data-name="Path 4052" d="M0,2.9,152.764,0,3.413,32.269Z" transform="translate(0 0.002)" fill="#656d78"/>
      <path id="Path_4053" data-name="Path 4053" d="M0,17.586,151.054,0,1.707,32.271Z" transform="translate(1.706)" fill="#494e57"/>
    </g>
    <g id="Group_3113" data-name="Group 3113">
      <path id="Path_4054" data-name="Path 4054" d="M196.476,196.509a49.117,49.117,0,1,0-69.461,0A49.117,49.117,0,0,0,196.476,196.509Z" transform="translate(13.038 13.004)" fill="#bac7cc"/>
      <path id="Path_4056" data-name="Path 4056" d="M193.268,193.3a45.167,45.167,0,1,0-63.877,0A45.167,45.167,0,0,0,193.268,193.3Z" transform="translate(13.453 13.42)" fill="#fff"/>
    </g>
  </g>
</svg>
