<svg id="Notifications" xmlns="http://www.w3.org/2000/svg" width="38" height="38" viewBox="0 0 38 38">
  <rect id="Rectangle_146" data-name="Rectangle 146" width="38" height="38" fill="none"/>
  <path id="Path_3" data-name="Path 3" d="M1492.31,82.333a2.881,2.881,0,0,0,2.875-2.872h-5.74A2.879,2.879,0,0,0,1492.31,82.333Zm8.616-8.615V66.539c0-4.408-2.337-8.1-6.462-9.075v-.976a2.154,2.154,0,1,0-4.307,0v.976c-4.1.976-6.462,4.652-6.462,9.075v7.179l-2.865,2.872v1.436H1503.8V76.59Zm-2.865,1.436H1486.57V66.539c0-3.561,2.165-6.462,5.74-6.462s5.751,2.9,5.751,6.462Z" transform="translate(-1472.83 -49.333)" fill="#fff"/>
</svg>
