<svg xmlns="http://www.w3.org/2000/svg" width="30" height="30" viewBox="0 0 30 30">
  <g id="Group_4285" data-name="Group 4285" transform="translate(-226 -2071)">
    <rect id="Rectangle_143" data-name="Rectangle 143" width="30" height="30" transform="translate(226 2071)" fill="none"/>
    <path id="noun-others-4032151" d="M116.667,94.637a1.3,1.3,0,0,1,1.3-1.3h23.455a1.3,1.3,0,0,1,0,2.606H117.97a1.3,1.3,0,0,1-1.3-1.3Zm24.758,6.515H117.97a1.3,1.3,0,0,0,0,2.606h23.455a1.3,1.3,0,0,0,0-2.606ZM131,108.971H117.97a1.3,1.3,0,0,0,0,2.606H131a1.3,1.3,0,0,0,0-2.606Zm10.425,0h-1.3v-1.3a1.3,1.3,0,0,0-2.606,0v1.3h-1.3a1.3,1.3,0,0,0,0,2.606h1.3v1.3a1.3,1.3,0,0,0,2.606,0v-1.3h1.3a1.3,1.3,0,0,0,0-2.606Z" transform="translate(111.303 1982.24)" fill="#3883e1"/>
  </g>
</svg>
