<svg xmlns="http://www.w3.org/2000/svg" width="42.336" height="42.297" viewBox="0 0 42.336 42.297">
  <path id="Path_3369" data-name="Path 3369" d="M103.721,37.887a2.009,2.009,0,0,0,4.016,0l.343-9.493a2.009,2.009,0,0,0-2.008-2.082h-.686a2.009,2.009,0,0,0-2.008,2.082Zm1.159-10.053a.663.663,0,0,1,.506-.215h.686a.7.7,0,0,1,.7.728l-.343,9.493a.7.7,0,0,1-1.405,0l-.343-9.493A.66.66,0,0,1,104.88,27.834Zm.849,12.5a2.39,2.39,0,1,0,2.39,2.39A2.393,2.393,0,0,0,105.729,40.334Zm0,3.475a1.084,1.084,0,1,1,1.084-1.084A1.085,1.085,0,0,1,105.729,43.809Zm0-20.993a12.9,12.9,0,1,0,12.9,12.9,12.911,12.911,0,0,0-12.9-12.9Zm0,24.489A11.591,11.591,0,1,1,117.32,35.713,11.6,11.6,0,0,1,105.729,47.3ZM126.208,33.08,123.149,31.9a17.629,17.629,0,0,0-2.41-5.813l1.331-3a.652.652,0,0,0-.135-.727l-2.862-2.861a.653.653,0,0,0-.727-.135l-3,1.331a17.645,17.645,0,0,0-5.811-2.41l-1.177-3.059a.653.653,0,0,0-.61-.418h-4.046a.653.653,0,0,0-.61.418l-1.177,3.059a17.641,17.641,0,0,0-5.812,2.41l-3-1.331a.653.653,0,0,0-.727.135l-2.861,2.862a.653.653,0,0,0-.135.727l1.331,3a17.634,17.634,0,0,0-2.41,5.812l-3.059,1.177a.653.653,0,0,0-.418.61v4.046a.653.653,0,0,0,.418.61l3.058,1.177a17.646,17.646,0,0,0,2.41,5.813l-1.331,3a.652.652,0,0,0,.135.727l2.862,2.861a.653.653,0,0,0,.727.135l3-1.331a17.645,17.645,0,0,0,5.811,2.41l1.177,3.059a.653.653,0,0,0,.61.418h4.046a.653.653,0,0,0,.61-.418l1.177-3.058a17.629,17.629,0,0,0,5.813-2.41l3,1.331a.652.652,0,0,0,.727-.135l2.861-2.862a.653.653,0,0,0,.135-.727l-1.332-3a17.645,17.645,0,0,0,2.41-5.811l3.059-1.177a.653.653,0,0,0,.418-.61V33.69a.654.654,0,0,0-.419-.61Zm-.887,4.207-2.973,1.144a.654.654,0,0,0-.406.484,16.353,16.353,0,0,1-2.485,5.994.654.654,0,0,0-.055.629l1.294,2.914-2.227,2.227-2.913-1.294a.653.653,0,0,0-.629.055,16.355,16.355,0,0,1-6,2.485.654.654,0,0,0-.484.406L107.3,55.3h-3.15l-1.144-2.973a.654.654,0,0,0-.484-.406,16.357,16.357,0,0,1-5.994-2.485.654.654,0,0,0-.629-.055L92.989,50.68l-2.227-2.227,1.294-2.913A.653.653,0,0,0,92,44.911a16.359,16.359,0,0,1-2.485-6,.654.654,0,0,0-.406-.484l-2.972-1.144v-3.15l2.973-1.144a.653.653,0,0,0,.406-.484A16.35,16.35,0,0,1,92,26.515a.654.654,0,0,0,.055-.629l-1.294-2.914,2.227-2.227L95.9,22.04a.653.653,0,0,0,.629-.055,16.357,16.357,0,0,1,5.994-2.485.653.653,0,0,0,.484-.406l1.144-2.973h3.15l1.144,2.973a.654.654,0,0,0,.484.406,16.357,16.357,0,0,1,5.994,2.485.654.654,0,0,0,.629.055l2.914-1.294,2.227,2.227L119.4,25.885a.654.654,0,0,0,.055.629,16.355,16.355,0,0,1,2.485,6,.654.654,0,0,0,.406.484l2.972,1.144v3.15Z" transform="translate(-84.581 -14.564)" fill="#fff" stroke="#fff" stroke-width="0.5"/>
</svg>
