<svg xmlns="http://www.w3.org/2000/svg" width="36" height="36.433" viewBox="0 0 36 36.433">
  <g id="Group_4277" data-name="Group 4277" transform="translate(-173 -1508)">
    <rect id="Rectangle_143" data-name="Rectangle 143" width="36" height="36" transform="translate(173 1508)" fill="none"/>
    <g id="noun-payment-1272582" transform="translate(78.192 1507.703)">
      <path id="Path_4262" data-name="Path 4262" d="M179.529,162.193a.354.354,0,0,0,.007-.038A.568.568,0,0,0,179.5,162a1.557,1.557,0,0,0-.8-1.166c-.034-.021-.07-.038-.107-.056,0-.031,0-.061.007-.092a7.608,7.608,0,0,1,.154-1.1l.083-.335a18.074,18.074,0,0,0,.64-3.754c.045-1.48.056-2.963.045-4.444a2.539,2.539,0,0,0-.338-1.182,2.414,2.414,0,0,0-2.053-1.252h-.477a2.335,2.335,0,0,0-1.919-.9l-.332.045a2.687,2.687,0,0,0-.371-.4,2.212,2.212,0,0,0-1.439-.565c0-1.075,0-2.151-.006-3.226a2.35,2.35,0,0,0-.952-1.832,2.4,2.4,0,0,0-2.043-.449,2.536,2.536,0,0,0-1.85,2.433v5.365a2.832,2.832,0,0,0-.521-.512,2.149,2.149,0,0,0-3.03.512,1.881,1.881,0,0,0-.041,1.976,2.339,2.339,0,0,1,.262.529c.266.9.523,1.8.784,2.7l.671,2.315a2.51,2.51,0,0,0,.388.8l.293.4c.626.852,1.249,1.707,1.911,2.528a.9.9,0,0,1,.211.466,1.451,1.451,0,0,0-.888,1.258.584.584,0,0,0-.021.1c0,.016.007.029.009.045-.009.105-.025.2-.025.317l-.013,4.248a.587.587,0,0,0,.583.586h0a.585.585,0,0,0,.585-.583l.009-4.029h9.453l.006,4.029a.586.586,0,0,0,.585.583h0a.585.585,0,0,0,.583-.586l-.007-4.508a.475.475,0,0,0,0-.064Zm-1.22-6.735a17,17,0,0,1-.608,3.511l-.083.338a8.708,8.708,0,0,0-.181,1.272c-.016.173-.031.342-.053.51a.559.559,0,0,0,.209.481h-7.923a.57.57,0,0,0,.143-.3,2.062,2.062,0,0,0-.445-1.676c-.649-.809-1.265-1.648-1.879-2.488l-.294-.4a1.444,1.444,0,0,1-.208-.431l-.67-2.312c-.26-.9-.519-1.8-.785-2.7a3.4,3.4,0,0,0-.385-.807.716.716,0,0,1,.01-.711.958.958,0,0,1,.64-.4.938.938,0,0,1,.719.165,2.917,2.917,0,0,1,.8,1.2,3.984,3.984,0,0,0,.55.929.585.585,0,0,0,1.041-.366v-7.554a1.364,1.364,0,0,1,.974-1.3,1.234,1.234,0,0,1,1.037.244,1.182,1.182,0,0,1,.491.914c.018,1.728.015,3.457.01,5.185l0,2.151a.585.585,0,1,0,1.17,0l0-2.148c0-.268,0-.535,0-.8a1.069,1.069,0,0,1,.673.279,1.257,1.257,0,0,1,.455.829c.034.459.028.921.022,1.383l-.006,1.014a.532.532,0,0,0,.583.519h0a.644.644,0,0,0,.585-.648l0-.87c.006-.5.013-.991-.024-1.483,0-.036-.015-.072-.019-.107a1.264,1.264,0,0,1,1.163,1.1,12.727,12.727,0,0,1,.019,1.313l-.01.639a.585.585,0,1,0,1.17,0l.009-.614a13.024,13.024,0,0,0-.023-1.439c0-.026-.012-.05-.015-.076a1.215,1.215,0,0,1,.983.632,1.391,1.391,0,0,1,.186.616c.013,1.47,0,2.936-.04,4.4Z" transform="translate(-62.748 -130.622)" fill="#f3bf4e"/>
      <path id="Path_4263" data-name="Path 4263" d="M257.829,495.261a.477.477,0,1,1-.477-.477.477.477,0,0,1,.477.477" transform="translate(-149.904 -462.026)" fill="#f3bf4e"/>
      <path id="Path_4264" data-name="Path 4264" d="M257.829,531.781a.477.477,0,1,1-.477-.477.477.477,0,0,1,.477.477" transform="translate(-149.904 -496.257)" fill="#f3bf4e"/>
      <path id="Path_4265" data-name="Path 4265" d="M125.74,1.866H99.894A2.94,2.94,0,0,0,96.958,4.8V6.524a.586.586,0,0,0,.585.585h30.548a.585.585,0,0,0,.585-.585V4.8a2.939,2.939,0,0,0-2.936-2.933ZM127.5,5.939H98.129V4.8a1.766,1.766,0,0,1,1.765-1.765h25.847A1.767,1.767,0,0,1,127.506,4.8V5.939Z" transform="translate(-0.009)" fill="#f3bf4e"/>
      <path id="Path_4266" data-name="Path 4266" d="M128.081,111.84H97.533a.585.585,0,0,0-.585.585v10.338a2.94,2.94,0,0,0,2.936,2.935.585.585,0,0,0,0-1.17,1.767,1.767,0,0,1-1.765-1.765V113.01H127.5v9.754a1.766,1.766,0,0,1-1.765,1.765H118a.585.585,0,1,0,0,1.17h7.73a2.94,2.94,0,0,0,2.936-2.935V112.425a.587.587,0,0,0-.586-.585Z" transform="translate(0 -103.082)" fill="#f3bf4e"/>
      <path id="Path_4267" data-name="Path 4267" d="M426.406,194.659a2.609,2.609,0,0,1,2.7,0,2.795,2.795,0,0,0,0-5.589,2.615,2.615,0,0,1-2.7,0,2.795,2.795,0,0,0,0,5.589Zm2.316-4.358a1.583,1.583,0,0,1,.382-.063,1.625,1.625,0,0,1,0,3.249,1.594,1.594,0,0,1-.382-.063,2.782,2.782,0,0,0,0-3.123Zm-2.316-.063a1.625,1.625,0,1,1-1.623,1.625A1.627,1.627,0,0,1,426.406,190.239Z" transform="translate(-306.192 -175.471)" fill="#f3bf4e"/>
    </g>
  </g>
</svg>
