<svg xmlns="http://www.w3.org/2000/svg" width="22.875" height="26.688" viewBox="0 0 22.875 26.688">
  <path id="pending_actions-3" d="M20.521,14.979a6.354,6.354,0,1,0,6.354,6.354A6.356,6.356,0,0,0,20.521,14.979Zm2.1,9.341-2.732-2.732V17.521h1.271v3.546l2.351,2.351ZM21.792,3.542H17.75a3.8,3.8,0,0,0-7.167,0H6.542A2.549,2.549,0,0,0,4,6.083V25.146a2.549,2.549,0,0,0,2.542,2.542h7.765a8.569,8.569,0,0,1-1.8-2.542H6.542V6.083H9.083V9.9H19.25V6.083h2.542v6.456a8.934,8.934,0,0,1,2.542.763V6.083A2.549,2.549,0,0,0,21.792,3.542ZM14.167,6.083a1.271,1.271,0,1,1,1.271-1.271A1.275,1.275,0,0,1,14.167,6.083Z" transform="translate(-4 -1)" fill="#879cb1"/>
</svg>
