<svg xmlns="http://www.w3.org/2000/svg" width="349.566" height="338.124" viewBox="0 0 349.566 338.124">
  <g id="Group_4111" data-name="Group 4111" transform="translate(-410 -1684.939)">
    <path id="Path_4045" data-name="Path 4045" d="M110.687,337.532a174.785,174.785,0,1,1,126.477.807l-11.45-30.068a142.606,142.606,0,1,0-103.2-.658Z" transform="translate(409.817 1684.724)" fill="#008015"/>
    <path id="Path_4046" data-name="Path 4046" d="M120.8,294.226A136.267,136.267,0,0,1,82.38,63.92L95.845,79.675a115.544,115.544,0,0,0,32.576,195.279Z" transform="translate(413.869 1692.214)" fill="#e4e8eb"/>
    <path id="Path_4047" data-name="Path 4047" d="M80.352,64.59a136.267,136.267,0,0,1,177.09,5.745l-13.977,15.3A115.542,115.542,0,0,0,93.308,80.766Z" transform="translate(419.243 1688.775)" fill="#e4e8eb"/>
    <path id="Path_4048" data-name="Path 4048" d="M242.873,68.977a136.27,136.27,0,0,1,41.2,88.664l-20.677,1.41a115.539,115.539,0,0,0-34.938-75.179Z" transform="translate(436.656 1692.808)" fill="#e4e8eb"/>
    <path id="Path_4049" data-name="Path 4049" d="M288.45,152.029a136.269,136.269,0,0,1-87.868,132.539l-7.347-19.379A115.545,115.545,0,0,0,267.74,152.808Z" transform="translate(432.515 1702.572)" fill="#e4e8eb"/>
    <path id="Path_4050" data-name="Path 4050" d="M110.687,337.532a174.783,174.783,0,1,1,238.771-172.6l-32.121,1.854A142.607,142.607,0,1,0,122.519,307.613Z" transform="translate(409.817 1684.724)" fill="#8ac41c"/>
    <path id="Path_4051" data-name="Path 4051" d="M110.687,337.532A174.783,174.783,0,1,1,294.268,47.265L272.307,70.779A142.608,142.608,0,1,0,122.519,307.613Z" transform="translate(409.817 1684.724)" fill="#ffb700"/>
    <path id="Path_4055" data-name="Path 4055" d="M210.872,156.611a49.117,49.117,0,1,1-98.234,0Z" transform="translate(423.039 1703.111)" fill="#bdbdbd"/>
    <path id="Path_4057" data-name="Path 4057" d="M110.394,333.259A174.783,174.783,0,0,1,64.281,35.572l20.375,24.9a142.607,142.607,0,0,0,37.625,242.888Z" transform="translate(409.817 1688.881)" fill="#ff4230"/>
    <g id="Group_3088" data-name="Group 3088" transform="translate(453.221 1856.429)" opacity="0.5">
      <path id="Path_4058" data-name="Path 4058" d="M57.776,199.577l-.631-1.952-3.152,1.018-.474-1.467c-.647-2-2.026-2.869-3.94-2.251-1.787.578-2.432,1.984-1.722,4.179l1.076,3.331Zm-5.123-.5-2.935.948-.379-1.173c-.33-1.021-.087-1.579,1.01-1.933a1.334,1.334,0,0,1,1.937,1.023Z" transform="translate(-37.832 -148.836)"/>
      <path id="Path_4059" data-name="Path 4059" d="M53.456,184.571c-.614-2.389-2.582-3.85-5.621-3.069l-.286.074c-3.052.785-4.043,2.908-3.423,5.324s2.585,3.863,5.612,3.086l.286-.074C53.089,189.124,54.081,187,53.456,184.571Zm-1.5.345c.381,1.481-.482,2.38-2.482,2.895l-.442.114c-1.792.46-3.034.046-3.392-1.344-.381-1.536.5-2.4,2.466-2.9l.455-.116C50.337,183.1,51.592,183.514,51.953,184.916Z" transform="translate(-38.258 -150.416)"/>
      <path id="Path_4060" data-name="Path 4060" d="M50.411,170.963c-.456-2.425-2.324-4.012-5.408-3.432l-.29.055c-3.1.582-4.225,2.637-3.764,5.088s2.326,4.024,5.4,3.448l.29-.055C49.746,175.481,50.874,173.427,50.411,170.963Zm-1.523.245c.283,1.5-.637,2.345-2.667,2.726l-.448.085c-1.819.342-3.031-.153-3.3-1.563-.279-1.558.661-2.363,2.651-2.737l.461-.086C47.395,169.292,48.62,169.785,48.888,171.207Z" transform="translate(-38.622 -152.048)"/>
      <path id="Path_4061" data-name="Path 4061" d="M48.555,161l-.251-2.036-3.58.441-.151-1.225,3.346-2.345-.268-2.17-3.762,2.694-.053.006a2.335,2.335,0,0,0-2.568-1.318c-1.877.231-2.629,1.472-2.357,3.681l.42,3.407Zm-5.146-1.406-2.862.352-.139-1.131c-.135-1.091.236-1.6,1.194-1.714,1-.123,1.532.257,1.666,1.349Z" transform="translate(-38.857 -153.664)"/>
    </g>
    <g id="Group_3089" data-name="Group 3089" transform="translate(683.752 1781.513)" opacity="0.5">
      <path id="Path_4062" data-name="Path 4062" d="M245.953,93.86a8.681,8.681,0,0,0,2.076,2.461l3.837-2.178-1.734-3.056-1.236.7.774,1.365-1.609.914a3.96,3.96,0,0,1-.791-.985c-.973-1.714-.118-2.708,1.5-3.629l.362-.205c1.446-.821,2.863-.932,3.9.9a6.484,6.484,0,0,1,.816,2.389l1.353-.768a6.063,6.063,0,0,0-.852-2.586c-1.218-2.146-3.314-3.5-6.393-1.753l-.245.139C244.814,89.218,244.563,91.411,245.953,93.86Z" transform="translate(-245.135 -86.63)"/>
      <path id="Path_4063" data-name="Path 4063" d="M251.858,105.058c1.084,2.216,3.307,3.25,6.125,1.871l.265-.13c2.831-1.385,3.373-3.666,2.276-5.906s-3.312-3.262-6.119-1.888l-.265.13C251.3,100.525,250.756,102.8,251.858,105.058Zm1.4-.641c-.672-1.373-.008-2.43,1.847-3.337l.409-.2c1.663-.813,2.963-.658,3.593.631.684,1.427-.009,2.453-1.828,3.343l-.421.206C255.21,105.867,253.9,105.717,253.26,104.417Z" transform="translate(-244.407 -85.247)"/>
      <path id="Path_4064" data-name="Path 4064" d="M257.6,117.76c.941,2.281,3.093,3.453,5.995,2.256l.273-.113c2.914-1.2,3.6-3.443,2.648-5.749s-3.1-3.466-5.987-2.274l-.273.113C257.329,113.2,256.643,115.441,257.6,117.76Zm1.442-.551c-.583-1.414.145-2.425,2.054-3.213l.421-.174c1.711-.705,3-.467,3.546.858.591,1.468-.165,2.447-2.037,3.22l-.434.18C260.893,118.781,259.593,118.548,259.041,117.209Z" transform="translate(-243.717 -83.716)"/>
      <path id="Path_4065" data-name="Path 4065" d="M261.508,127.169l1.059,3.1c.957,2.792,2.924,3.776,5.8,2.789l.279-.095c2.93-1,3.635-3,2.706-5.718l-1.056-3.083Zm2.111,1.446,5.9-2.021.356,1.04c.507,1.484.178,2.547-1.9,3.26l-.445.152c-2,.686-3,.232-3.517-1.29Z" transform="translate(-243.21 -82.217)"/>
    </g>
    <g id="Group" transform="translate(537.847 1728.123)">
      <path id="Path_4084" data-name="Path 4084" d="M3.185,17.155l1.782-.466.156-2.232,3.14-.821L9.5,15.5l2.012-.526L6.066,6.911l-2.051.536ZM5.428,9.392l.051-.013,1.98,3.015-2.269.593Z" transform="translate(0 0.507)" fill="#717374"/>
      <path id="Path_4085" data-name="Path 4085" d="M19.129,13.565l2.012-.342,1.623-9.589-1.855.315-1.052,7.019-.039.007L16.481,4.7l-2.051.348Z" transform="translate(1.171 0.166)" fill="#717374"/>
      <path id="Path_4086" data-name="Path 4086" d="M29.426,12.025l6.06-.511-.127-1.505-4.053.342L31.1,7.908l3.076-.259L34.052,6.17l-3.076.259-.187-2.218,3.961-.334-.127-1.505-5.967.5Z" transform="translate(2.651 0.034)" fill="#717374"/>
      <path id="Path_4087" data-name="Path 4087" d="M41.313,11.225H43.34V7.661h1.219l1.895,3.564h2.16L46.427,7.211V7.158A2.307,2.307,0,0,0,48.03,4.8c0-1.868-1.126-2.756-3.326-2.756H41.313Zm2-4.876V3.5h1.126c1.086,0,1.537.424,1.537,1.378,0,.994-.437,1.471-1.524,1.471Z" transform="translate(3.969)" fill="#717374"/>
      <path id="Path_4088" data-name="Path 4088" d="M53.574,11.416l1.835.161.9-2.049,3.234.284.541,2.175,2.072.182L59.734,2.74l-2.112-.185ZM58.3,4.862l.053,0,.85,3.506-2.336-.2Z" transform="translate(5.245 0.053)" fill="#717374"/>
      <path id="Path_4089" data-name="Path 4089" d="M71.179,13.739a8.578,8.578,0,0,0,3.18-.03l.759-4.292-3.418-.6L71.456,10.2l1.526.27-.318,1.8a3.92,3.92,0,0,1-1.248-.019C69.5,11.908,69.28,10.632,69.6,8.818l.072-.4c.286-1.618,1.095-2.766,3.143-2.4a6.415,6.415,0,0,1,2.333.883l.268-1.513a5.989,5.989,0,0,0-2.5-.981c-2.4-.424-4.752.317-5.361,3.761l-.048.274C66.928,11.682,68.439,13.255,71.179,13.739Z" transform="translate(6.682 0.234)" fill="#717374"/>
      <path id="Path_4090" data-name="Path 4090" d="M79.923,15.447,85.8,17.005l.387-1.46L82.257,14.5l.628-2.369,2.984.791.38-1.434L83.265,10.7l.57-2.152,3.842,1.019.387-1.46L82.276,6.572Z" transform="translate(7.988 0.471)" fill="#717374"/>
    </g>
    <g id="Group-1" transform="matrix(1, -0.017, 0.017, 1, 641.996, 1870.77)">
      <path id="Path_4075" data-name="Path 4075" d="M62.325,6.912,61.5,12.358l1.353.2.549-3.643,2.2.331-.417,2.765,1.329.2L66.93,9.45l1.993.3-.537,3.56,1.353.2.809-5.363Z" fill="#717374"/>
      <path id="Path_4076" data-name="Path 4076" d="M60.367,18.121l-.473,1.774,2.5,2.53-.012.046-3.432.948-.519,1.948,4.8-1.317,3.279,3.308.47-1.763-2.375-2.272.012-.046,3.219-.893.519-1.948L63.83,21.714Z" fill="#717374"/>
      <path id="Path_4077" data-name="Path 4077" d="M55.1,34.312a5,5,0,0,0-.4,2.344l1.275.5a4.591,4.591,0,0,1,.314-1.964c.605-1.554,1.771-1.77,3.426-1.125l.38.148c1.688.658,2.06,1.755,1.554,3.052a5.273,5.273,0,0,1-1.008,1.629l1.286.5a4.8,4.8,0,0,0,1.14-1.836c.806-2.069.4-4.144-2.414-5.241l-.28-.109C57.753,31.183,55.976,32.075,55.1,34.312Z" fill="#717374"/>
      <path id="Path_4078" data-name="Path 4078" d="M51.831,42.162,49.3,47.054l1.215.629,1.694-3.271,1.971,1.021-1.286,2.483,1.194.618,1.286-2.483,1.79.927-1.655,3.2,1.215.629,2.494-4.817Z" fill="#717374"/>
      <path id="Path_4079" data-name="Path 4079" d="M46.019,52.634l-2.866,4.334,1.141.755,1.853-2.8,5.8,3.832,1.013-1.531Z" fill="#717374"/>
      <path id="Path_4080" data-name="Path 4080" d="M39.128,62.43l-3.31,4.005,1.054.871,2.141-2.59,5.355,4.427,1.17-1.415Z" fill="#717374"/>
      <path id="Path_4081" data-name="Path 4081" d="M31.234,71.437l-3.94,3.849.956.979,2.635-2.574,1.551,1.588-2,1.954.939.961,2-1.954,1.409,1.442L32.209,80.2l.956.979,3.88-3.79Z" fill="#717374"/>
      <path id="Path_4082" data-name="Path 4082" d="M22.448,79.576l-1.253.969,3.568,4.613-.038.029-6.235-2.55-1.414,1.094,5.087,6.578,1.262-.976-3.3-4.262.028-.022,5.783,2.339,1.595-1.233Z" fill="#717374"/>
      <path id="Path_4083" data-name="Path 4083" d="M9.666,88.666l-1.572.949,3.59,5.949-1.973,1.19.707,1.171L15.925,94.6l-.707-1.171-1.962,1.184Z" fill="#717374"/>
    </g>
  </g>
</svg>
