<svg id="Settings" xmlns="http://www.w3.org/2000/svg" width="38" height="38" viewBox="0 0 38 38">
  <rect id="Rectangle_13" data-name="Rectangle 13" width="38" height="38" fill="none"/>
  <path id="Path_2" data-name="Path 2" d="M1578.544,69.039a10.035,10.035,0,0,0,0-2.744l2.95-2.31a.7.7,0,0,0,.168-.9l-2.793-4.844a.719.719,0,0,0-.378-.311.7.7,0,0,0-.483,0l-3.486,1.4a10.2,10.2,0,0,0-2.362-1.372l-.536-3.71a.682.682,0,0,0-.682-.588h-5.6a.684.684,0,0,0-.693.588l-.525,3.71a10.8,10.8,0,0,0-2.373,1.372l-3.486-1.4a.721.721,0,0,0-.252-.042.7.7,0,0,0-.6.35l-2.8,4.844a.7.7,0,0,0,.168.9l2.961,2.31a9.029,9.029,0,0,0,0,2.744l-2.961,2.31a.711.711,0,0,0-.168.9l2.8,4.844a.694.694,0,0,0,.85.308l3.486-1.4a10.271,10.271,0,0,0,2.373,1.372l.525,3.71a.684.684,0,0,0,.693.588h5.6a.682.682,0,0,0,.682-.588l.536-3.71A10.733,10.733,0,0,0,1574.522,76l3.486,1.4a.8.8,0,0,0,.252.042.7.7,0,0,0,.609-.35l2.793-4.844a.7.7,0,0,0-.168-.9l-2.95-2.31Zm-2.772-2.394a8.14,8.14,0,0,1,.073,1.022c0,.294-.031.6-.073,1.022l-.2,1.582,1.25.98,1.512,1.176-.976,1.694-1.785-.714-1.449-.588-1.26.952a8.3,8.3,0,0,1-1.753,1.022l-1.48.6-.231,1.582-.273,1.89h-1.963l-.263-1.89-.231-1.582-1.48-.6a7.937,7.937,0,0,1-1.722-.994l-1.271-.98-1.491.6-1.775.714-.976-1.694,1.512-1.176,1.239-.98-.189-1.582c-.042-.434-.074-.756-.074-1.036s.031-.6.074-1.022l.189-1.582-1.239-.98-1.512-1.176.976-1.694,1.775.714,1.46.588,1.26-.952a8.052,8.052,0,0,1,1.753-1.022l1.48-.6.221-1.582.284-1.89h1.942l.273,1.89.221,1.582,1.481.6a7.708,7.708,0,0,1,1.722.994l1.281.98,1.48-.6,1.774-.714.987,1.694-1.5,1.19-1.25.98Zm-7.633-4.578a5.6,5.6,0,1,0,5.607,5.6A5.6,5.6,0,0,0,1568.139,62.067Zm0,8.4a2.8,2.8,0,1,1,2.8-2.8A2.807,2.807,0,0,1,1568.139,70.467Z" transform="translate(-1549.52 -48.667)" fill="#fff"/>
</svg>
