<svg id="Termsheets" xmlns="http://www.w3.org/2000/svg" width="30" height="30" viewBox="0 0 30 30">
  <rect id="Rectangle_143" data-name="Rectangle 143" width="30" height="30" fill="none"/>
  <path id="book" d="M5,5.938V4.688a.313.313,0,0,1,.312-.312h8.125a.313.313,0,0,1,.312.313v1.25a.313.313,0,0,1-.312.312H5.312A.313.313,0,0,1,5,5.938Zm.312,3.438h8.125a.313.313,0,0,0,.312-.313V7.813a.313.313,0,0,0-.312-.312H5.312A.313.313,0,0,0,5,7.813v1.25A.313.313,0,0,0,5.312,9.375ZM17,15.613a6.531,6.531,0,0,0,0,2.523.625.625,0,0,1,.5.613v.625a.627.627,0,0,1-.625.625H3.125A3.124,3.124,0,0,1,0,16.875V3.125A3.124,3.124,0,0,1,3.125,0h13.75A.627.627,0,0,1,17.5.625V15A.624.624,0,0,1,17,15.613Zm-1.605.012H3.125a1.25,1.25,0,0,0,0,2.5H15.39A9.916,9.916,0,0,1,15.39,15.625Zm.234-13.75H3.125a1.249,1.249,0,0,0-1.25,1.25V14.012a3.1,3.1,0,0,1,1.25-.262h12.5Z" transform="translate(6 5)" fill="#3883e1"/>
</svg>
