<svg xmlns="http://www.w3.org/2000/svg" width="30" height="30" viewBox="0 0 30 30">
  <g id="Group_4275" data-name="Group 4275" transform="translate(-227 -1207)">
    <rect id="Rectangle_143" data-name="Rectangle 143" width="30" height="30" transform="translate(227 1207)" fill="none"/>
    <path id="noun-ship-5188878" d="M126.766,85.169l-.936-.425a.838.838,0,1,0-.681,1.531l.936.425a2.524,2.524,0,0,0,2.212,0l.51-.34.6.255a2.71,2.71,0,0,0,2.3,0l.6-.255.6.255a2.71,2.71,0,0,0,2.3,0l.6-.255.6.255a2.71,2.71,0,0,0,2.3,0l.6-.255.6.255a2.71,2.71,0,0,0,2.3,0l.6-.255.6.255a2.71,2.71,0,0,0,2.3,0l.936-.425a.838.838,0,0,0-.681-1.531l-.936.51a1.181,1.181,0,0,1-.766,0l-.51-.255,2.552-8.593a.792.792,0,0,0-.51-1.021l-1.617-.425V70.791a.817.817,0,0,0-.6-.766L140.719,69V65.6a.8.8,0,0,0-.851-.851H131.36a.8.8,0,0,0-.851.851v3.318L127.7,69.94a.817.817,0,0,0-.6.766V74.79L126,75.215a.792.792,0,0,0-.51,1.021l2.637,8.508-.6.255A.7.7,0,0,1,126.766,85.169ZM141.4,85l-.34.17a1.181,1.181,0,0,1-.766,0l-.936-.425a1.18,1.18,0,0,0-.766,0l-.936.51a1.18,1.18,0,0,1-.766,0l-.425-.34V73.854l7.487,2.723Zm-9.189-18.548h6.806v1.957l-3.148-1.021a.542.542,0,0,0-.51,0l-3.148,1.021Zm-3.4,4.935,6.806-2.3,6.806,2.3v2.893L139.7,73.258h.17a.851.851,0,1,0-.851-.851.894.894,0,0,0,.425.766L135.87,71.9a.425.425,0,0,0-.51,0l-3.488,1.276a.774.774,0,0,0,.34-.681.851.851,0,0,0-1.7,0,.853.853,0,0,0,.851.851h.085l-2.637.851Zm5.956,2.467v11.06l-.51.255a1.181,1.181,0,0,1-.766,0l-.936-.425a1.18,1.18,0,0,0-.766,0l-.936.51a1.18,1.18,0,0,1-.766,0l-.255-.085-2.552-8.423Z" transform="translate(106.131 1146.146)" fill="#3883e1"/>
  </g>
</svg>
