<svg xmlns="http://www.w3.org/2000/svg" width="87.912" height="87.912" viewBox="0 0 87.912 87.912">
  <g id="Group_3277" data-name="Group 3277" transform="translate(-1438 -478.19)">
    <path id="Path_3517" data-name="Path 3517" d="M692,127.043a31.043,31.043,0,1,1,31.043,31.043A31.043,31.043,0,0,1,692,127.043Z" transform="translate(759 395.19)" fill="#b5ffba" opacity="0.5"/>
    <path id="Path_3518" data-name="Path 3518" d="M739.414,126.446v1.429a15.539,15.539,0,1,1-9.215-14.2m9.215,1.772L723.873,131l-4.662-4.662" transform="translate(758.167 394.364)" fill="none" stroke="#43c34d" stroke-linejoin="round" stroke-width="3.33"/>
    <path id="Path_3519" data-name="Path 3519" d="M730.956,165.592a30.635,30.635,0,0,1-30.636-30.636H687a43.957,43.957,0,0,0,43.956,43.956Zm30.636-30.636a30.635,30.635,0,0,1-30.636,30.636v13.32a43.957,43.957,0,0,0,43.956-43.956ZM730.956,104.32a30.635,30.635,0,0,1,30.636,30.636h13.32A43.957,43.957,0,0,0,730.956,91Zm0-13.32A43.957,43.957,0,0,0,687,134.956h13.32a30.635,30.635,0,0,1,30.636-30.636Z" transform="translate(751 387.19)" fill="#d8ffdb" opacity="0.5"/>
  </g>
</svg>
