<svg xmlns="http://www.w3.org/2000/svg" width="30" height="30" viewBox="0 0 30 30">
  <g id="Group_4279" data-name="Group 4279" transform="translate(-227 -1711)">
    <rect id="Rectangle_143" data-name="Rectangle 143" width="30" height="30" transform="translate(227 1711)" fill="none"/>
    <g id="Group_4251" data-name="Group 4251" transform="translate(229.384 1711)">
      <path id="user" d="M12.322,11.945c-1.128,0-1.67.629-3.521.629s-2.389-.629-3.521-.629A5.282,5.282,0,0,0,0,17.226v1.006a1.887,1.887,0,0,0,1.886,1.886H15.717A1.887,1.887,0,0,0,17.6,18.231V17.226A5.282,5.282,0,0,0,12.322,11.945Zm3.395,6.287H1.886V17.226a3.4,3.4,0,0,1,3.395-3.395,15.385,15.385,0,0,0,3.521.629,15.237,15.237,0,0,0,3.521-.629,3.4,3.4,0,0,1,3.395,3.395ZM8.8,11.316A5.658,5.658,0,1,0,3.143,5.658,5.66,5.66,0,0,0,8.8,11.316Zm0-9.43A3.772,3.772,0,1,1,5.03,5.658,3.778,3.778,0,0,1,8.8,1.886Z" transform="translate(0.198 4.941)" fill="#3883e1"/>
      <path id="users-medical" d="M468.282,72.565a4.282,4.282,0,1,1,4.282-4.282A4.282,4.282,0,0,1,468.282,72.565Zm0-6A1.713,1.713,0,1,0,470,68.282,1.713,1.713,0,0,0,468.282,66.569Zm-3.147,8.474a4.48,4.48,0,0,1,2.505-.765h1.285a4.5,4.5,0,0,1,4.5,4.5,1.285,1.285,0,1,1-2.569,0,1.933,1.933,0,0,0-1.927-1.927H467.64a1.9,1.9,0,0,0-.658.134A7.943,7.943,0,0,0,465.135,75.043Z" transform="translate(-448.387 -58.059)" fill="#3883e1" stroke="#102141" stroke-width="0.5"/>
    </g>
  </g>
</svg>
