<svg xmlns="http://www.w3.org/2000/svg" width="30" height="30" viewBox="0 0 30 30">
  <g id="Group_4280" data-name="Group 4280" transform="translate(-227 -1771)">
    <rect id="Rectangle_143" data-name="Rectangle 143" width="30" height="30" transform="translate(227 1771)" fill="none"/>
    <path id="user" d="M12.322,11.945c-1.128,0-1.67.629-3.521.629s-2.389-.629-3.521-.629A5.282,5.282,0,0,0,0,17.226v1.006a1.887,1.887,0,0,0,1.886,1.886H15.717A1.887,1.887,0,0,0,17.6,18.231V17.226A5.282,5.282,0,0,0,12.322,11.945Zm3.395,6.287H1.886V17.226a3.4,3.4,0,0,1,3.395-3.395,15.385,15.385,0,0,0,3.521.629,15.237,15.237,0,0,0,3.521-.629,3.4,3.4,0,0,1,3.395,3.395ZM8.8,11.316A5.658,5.658,0,1,0,3.143,5.658,5.66,5.66,0,0,0,8.8,11.316Zm0-9.43A3.772,3.772,0,1,1,5.03,5.658,3.778,3.778,0,0,1,8.8,1.886Z" transform="translate(229.526 1775.158)" fill="#3883e1"/>
    <path id="bxs-user-detail" d="M15.116,11.463h7.81v2.231h-7.81Zm1.116,4.463h6.694v2.231H16.231ZM14,7h8.925V9.231H14Z" transform="translate(231.549 1767.275)" fill="#3883e1"/>
  </g>
</svg>
