<svg xmlns="http://www.w3.org/2000/svg" width="32.667" height="30.474" viewBox="0 0 32.667 30.474">
  <g id="Group_4281" data-name="Group 4281" transform="translate(-226.138 -1830.539)">
    <rect id="Rectangle_143" data-name="Rectangle 143" width="30" height="30" transform="translate(227 1831)" fill="none"/>
    <path id="user" d="M7.817,7.577c-.715,0-1.059.4-2.233.4s-1.516-.4-2.233-.4A3.351,3.351,0,0,0,0,10.927v.638a1.2,1.2,0,0,0,1.2,1.2H9.97a1.2,1.2,0,0,0,1.2-1.2v-.638A3.351,3.351,0,0,0,7.817,7.577Zm-2.233-.4A3.589,3.589,0,1,0,1.994,3.589,3.59,3.59,0,0,0,5.583,7.178Z" transform="translate(246.888 1847.289)" fill="none" stroke="#3883e1" stroke-width="1.5"/>
    <path id="user-2" data-name="user" d="M7.817,7.577c-.715,0-1.059.4-2.233.4s-1.516-.4-2.233-.4A3.351,3.351,0,0,0,0,10.927v.638a1.2,1.2,0,0,0,1.2,1.2H9.97a1.2,1.2,0,0,0,1.2-1.2v-.638A3.351,3.351,0,0,0,7.817,7.577Zm-2.233-.4A3.589,3.589,0,1,0,1.994,3.589,3.59,3.59,0,0,0,5.583,7.178Z" transform="translate(226.888 1831.289)" fill="none" stroke="#3883e1" stroke-width="1.5"/>
    <path id="Path_4257" data-name="Path 4257" d="M318.757,40.217h8.194v7.562a1.08,1.08,0,1,0,2.161,0V39.137a1.08,1.08,0,0,0-1.08-1.08h-9.275l.313-.319a1.08,1.08,0,0,0-1.523-1.523l-2.161,2.161a1.08,1.08,0,0,0,0,1.523l2.161,2.161a1.08,1.08,0,0,0,1.523-1.523Z" transform="translate(-75.641 1794.809)" fill="#3883e1"/>
    <path id="Path_4258" data-name="Path 4258" d="M169.067,321.8a1.08,1.08,0,0,0-1.523,1.523l.313.319h-8.194v-7.562a1.08,1.08,0,1,0-2.161,0v8.643a1.08,1.08,0,0,0,1.08,1.08h9.275l-.313.319a1.08,1.08,0,1,0,1.523,1.523l2.161-2.161a1.08,1.08,0,0,0,0-1.523Z" transform="translate(72.202 1532.994)" fill="#3883e1"/>
  </g>
</svg>
