<svg xmlns="http://www.w3.org/2000/svg" width="33.639" height="32.373" viewBox="0 0 33.639 32.373">
  <g id="Group_4271" data-name="Group 4271" transform="translate(-227 -839)">
    <rect id="Rectangle_143" data-name="Rectangle 143" width="30" height="30" transform="translate(227 839)" fill="none"/>
    <path id="noun-ship-5188878" d="M127.076,88.172,126,87.684a.961.961,0,1,0-.781,1.757l1.074.488a2.9,2.9,0,0,0,2.537,0l.586-.39.683.293a3.109,3.109,0,0,0,2.635,0l.683-.293.683.293a3.109,3.109,0,0,0,2.635,0l.683-.293.683.293a3.109,3.109,0,0,0,2.635,0l.683-.293.683.293a3.109,3.109,0,0,0,2.635,0l.683-.293.683.293a3.109,3.109,0,0,0,2.635,0l1.074-.488a.961.961,0,0,0-.781-1.757l-1.074.586a1.354,1.354,0,0,1-.878,0l-.586-.293,2.928-9.857a.909.909,0,0,0-.586-1.171l-1.854-.488V71.679a.937.937,0,0,0-.683-.878l-3.221-1.171v-3.9a.922.922,0,0,0-.976-.976h-9.759a.922.922,0,0,0-.976.976v3.806L128.149,70.7a.937.937,0,0,0-.683.878v4.684l-1.269.488a.909.909,0,0,0-.586,1.171l3.025,9.759-.683.293A.8.8,0,0,1,127.076,88.172Zm16.786-.2-.39.2a1.354,1.354,0,0,1-.878,0l-1.074-.488a1.354,1.354,0,0,0-.878,0l-1.074.586a1.354,1.354,0,0,1-.878,0l-.488-.39V75.192l8.588,3.123ZM133.322,66.7h7.807v2.245l-3.611-1.171a.622.622,0,0,0-.586,0l-3.611,1.171Zm-3.9,5.66,7.807-2.635,7.807,2.635V75.68l-3.123-1.171h.2a.976.976,0,1,0-.976-.976,1.025,1.025,0,0,0,.488.878l-4.1-1.464a.488.488,0,0,0-.586,0l-4,1.464a.888.888,0,0,0,.39-.781.976.976,0,0,0-1.952,0,.978.978,0,0,0,.976.976h.1l-3.025.976Zm6.831,2.83V87.879l-.586.293a1.354,1.354,0,0,1-.878,0l-1.074-.488a1.354,1.354,0,0,0-.878,0l-1.074.586a1.354,1.354,0,0,1-.878,0l-.293-.1-2.928-9.662Z" transform="translate(103.587 775.765)" fill="#3883e1"/>
    <path id="bxs-check-circle" d="M10.187,2a8.187,8.187,0,1,0,8.187,8.187A8.2,8.2,0,0,0,10.187,2Z" transform="translate(242.266 853)" fill="#102141"/>
    <g id="bx-check-circle" transform="translate(244.266 855)">
      <path id="Path_4106" data-name="Path 4106" d="M10.187,2a8.187,8.187,0,1,0,8.187,8.187A8.2,8.2,0,0,0,10.187,2Zm0,14.736a6.549,6.549,0,1,1,6.549-6.549A6.557,6.557,0,0,1,10.187,16.736Z" transform="translate(-2 -2)" fill="#3883e1"/>
      <path id="Path_4107" data-name="Path 4107" d="M9.326,12.627,7.444,10.748,6.288,11.907l3.04,3.033,5.49-5.49L13.66,8.293Z" transform="translate(-2.778 -3.141)" fill="#3883e1"/>
    </g>
  </g>
</svg>
