<svg id="Warehouse" xmlns="http://www.w3.org/2000/svg" width="36" height="36" viewBox="0 0 36 36">
  <rect id="Rectangle_143" data-name="Rectangle 143" width="36" height="36" fill="none"/>
  <path id="warehouse-2" data-name="warehouse" d="M22.05,9.112H5.95a1.75,1.75,0,0,0-1.75,1.75v10.85a.7.7,0,0,0,.7.7h.7a.7.7,0,0,0,.7-.7v-2.1H21.7v2.1a.7.7,0,0,0,.7.7h.7a.7.7,0,0,0,.7-.7V10.862A1.75,1.75,0,0,0,22.05,9.112Zm-.35,9.1H6.3v-2.8H21.7Zm0-4.2H6.3v-2.8H21.7Zm4.458-9.183L15.151.244a2.977,2.977,0,0,0-2.3,0L1.842,4.829A2.978,2.978,0,0,0,0,7.589V21.712a.7.7,0,0,0,.7.7h.7a.7.7,0,0,0,.7-.7V7.589a.883.883,0,0,1,.547-.823L13.659,2.182a.89.89,0,0,1,.687,0L25.353,6.767a.892.892,0,0,1,.547.823V21.712a.7.7,0,0,0,.7.7h.7a.7.7,0,0,0,.7-.7V7.589A2.978,2.978,0,0,0,26.158,4.829Z" transform="translate(4.5 6.488)" fill="#3883e1" stroke="#3883e1" stroke-width="0.5"/>
</svg>
